  0
SECTION
  2
HEADER
  9
$ACADVER
  1
AC1021
  9
$ACADMAINTVER
 70
    25
  9
$DWGCODEPAGE
  3
ANSI_1252
  9
$INSBASE
 10
0.0
 20
0.0
 30
0.0
  9
$EXTMIN
 10
1.000000000000000E+20
 20
1.000000000000000E+20
 30
1.000000000000000E+20
  9
$EXTMAX
 10
-1.000000000000000E+20
 20
-1.000000000000000E+20
 30
-1.000000000000000E+20
  9
$LIMMIN
 10
0.0
 20
0.0
  9
$LIMMAX
 10
12.0
 20
9.0
  9
$ORTHOMODE
 70
     0
  9
$REGENMODE
 70
     1
  9
$FILLMODE
 70
     1
  9
$QTEXTMODE
 70
     0
  9
$MIRRTEXT
 70
     1
  9
$LTSCALE
 40
1.0
  9
$ATTMODE
 70
     1
  9
$TEXTSIZE
 40
0.2
  9
$TRACEWID
 40
0.05
  9
$TEXTSTYLE
  7
Standard
  9
$CLAYER
  8
0
  9
$CELTYPE
  6
ByLayer
  9
$CECOLOR
 62
   256
  9
$CELTSCALE
 40
1.0
  9
$DISPSILH
 70
     0
  9
$DIMSCALE
 40
1.0
  9
$DIMASZ
 40
0.06
  9
$DIMEXO
 40
0.0625
  9
$DIMDLI
 40
0.38
  9
$DIMRND
 40
0.0
  9
$DIMDLE
 40
0.0
  9
$DIMEXE
 40
0.18
  9
$DIMTP
 40
0.0
  9
$DIMTM
 40
0.0
  9
$DIMTXT
 40
0.0456166261438616
  9
$DIMCEN
 40
0.09
  9
$DIMTSZ
 40
0.0
  9
$DIMTOL
 70
     0
  9
$DIMLIM
 70
     0
  9
$DIMTIH
 70
     1
  9
$DIMTOH
 70
     1
  9
$DIMSE1
 70
     0
  9
$DIMSE2
 70
     0
  9
$DIMTAD
 70
     0
  9
$DIMZIN
 70
     0
  9
$DIMBLK
  1

  9
$DIMASO
 70
     1
  9
$DIMSHO
 70
     1
  9
$DIMPOST
  1

  9
$DIMAPOST
  1

  9
$DIMALT
 70
     0
  9
$DIMALTD
 70
     2
  9
$DIMALTF
 40
25.4
  9
$DIMLFAC
 40
1.0
  9
$DIMTOFL
 70
     0
  9
$DIMTVP
 40
0.0
  9
$DIMTIX
 70
     0
  9
$DIMSOXD
 70
     0
  9
$DIMSAH
 70
     0
  9
$DIMBLK1
  1

  9
$DIMBLK2
  1

  9
$DIMSTYLE
  2
Standard
  9
$DIMCLRD
 70
     0
  9
$DIMCLRE
 70
     0
  9
$DIMCLRT
 70
     0
  9
$DIMTFAC
 40
1.0
  9
$DIMGAP
 40
0.09
  9
$DIMJUST
 70
     0
  9
$DIMSD1
 70
     0
  9
$DIMSD2
 70
     0
  9
$DIMTOLJ
 70
     1
  9
$DIMTZIN
 70
     0
  9
$DIMALTZ
 70
     0
  9
$DIMALTTZ
 70
     0
  9
$DIMUPT
 70
     0
  9
$DIMDEC
 70
     4
  9
$DIMTDEC
 70
     4
  9
$DIMALTU
 70
     2
  9
$DIMALTTD
 70
     2
  9
$DIMTXSTY
  7
Standard
  9
$DIMAUNIT
 70
     0
  9
$DIMADEC
 70
     0
  9
$DIMALTRND
 40
0.0
  9
$DIMAZIN
 70
     0
  9
$DIMDSEP
 70
    46
  9
$DIMATFIT
 70
     3
  9
$DIMFRAC
 70
     0
  9
$DIMLDRBLK
  1

  9
$DIMLUNIT
 70
     2
  9
$DIMLWD
 70
    -2
  9
$DIMLWE
 70
    -2
  9
$DIMTMOVE
 70
     0
  9
$DIMFXL
 40
1.0
  9
$DIMFXLON
 70
     0
  9
$DIMJOGANG
 40
0.7853981633974483
  9
$DIMTFILL
 70
     0
  9
$DIMTFILLCLR
 70
     0
  9
$DIMARCSYM
 70
     0
  9
$DIMLTYPE
  6

  9
$DIMLTEX1
  6

  9
$DIMLTEX2
  6

  9
$LUNITS
 70
     2
  9
$LUPREC
 70
     4
  9
$SKETCHINC
 40
0.1
  9
$FILLETRAD
 40
0.5
  9
$AUNITS
 70
     0
  9
$AUPREC
 70
     0
  9
$MENU
  1
.
  9
$ELEVATION
 40
0.0
  9
$PELEVATION
 40
0.0
  9
$THICKNESS
 40
0.0
  9
$LIMCHECK
 70
     0
  9
$CHAMFERA
 40
0.5
  9
$CHAMFERB
 40
0.5
  9
$CHAMFERC
 40
1.0
  9
$CHAMFERD
 40
0.0
  9
$SKPOLY
 70
     0
  9
$TDCREATE
 40
2456998.769586806
  9
$TDUCREATE
 40
2456999.102920139
  9
$TDUPDATE
 40
2456998.769588032
  9
$TDUUPDATE
 40
2456999.102921366
  9
$TDINDWG
 40
0.0000000116
  9
$TDUSRTIMER
 40
0.0000000116
  9
$USRTIMER
 70
     1
  9
$ANGBASE
 50
0.0
  9
$ANGDIR
 70
     0
  9
$PDMODE
 70
     0
  9
$PDSIZE
 40
0.0
  9
$PLINEWID
 40
0.0
  9
$SPLFRAME
 70
     0
  9
$SPLINETYPE
 70
     6
  9
$SPLINESEGS
 70
     8
  9
$HANDSEED
  5
FB
  9
$SURFTAB1
 70
     6
  9
$SURFTAB2
 70
     6
  9
$SURFTYPE
 70
     6
  9
$SURFU
 70
     6
  9
$SURFV
 70
     6
  9
$UCSBASE
  2

  9
$UCSNAME
  2

  9
$UCSORG
 10
0.0
 20
0.0
 30
0.0
  9
$UCSXDIR
 10
1.0
 20
0.0
 30
0.0
  9
$UCSYDIR
 10
0.0
 20
1.0
 30
0.0
  9
$UCSORTHOREF
  2

  9
$UCSORTHOVIEW
 70
     0
  9
$UCSORGTOP
 10
0.0
 20
0.0
 30
0.0
  9
$UCSORGBOTTOM
 10
0.0
 20
0.0
 30
0.0
  9
$UCSORGLEFT
 10
0.0
 20
0.0
 30
0.0
  9
$UCSORGRIGHT
 10
0.0
 20
0.0
 30
0.0
  9
$UCSORGFRONT
 10
0.0
 20
0.0
 30
0.0
  9
$UCSORGBACK
 10
0.0
 20
0.0
 30
0.0
  9
$PUCSBASE
  2

  9
$PUCSNAME
  2

  9
$PUCSORG
 10
0.0
 20
0.0
 30
0.0
  9
$PUCSXDIR
 10
1.0
 20
0.0
 30
0.0
  9
$PUCSYDIR
 10
0.0
 20
1.0
 30
0.0
  9
$PUCSORTHOREF
  2

  9
$PUCSORTHOVIEW
 70
     0
  9
$PUCSORGTOP
 10
0.0
 20
0.0
 30
0.0
  9
$PUCSORGBOTTOM
 10
0.0
 20
0.0
 30
0.0
  9
$PUCSORGLEFT
 10
0.0
 20
0.0
 30
0.0
  9
$PUCSORGRIGHT
 10
0.0
 20
0.0
 30
0.0
  9
$PUCSORGFRONT
 10
0.0
 20
0.0
 30
0.0
  9
$PUCSORGBACK
 10
0.0
 20
0.0
 30
0.0
  9
$USERI1
 70
     0
  9
$USERI2
 70
     0
  9
$USERI3
 70
     0
  9
$USERI4
 70
     0
  9
$USERI5
 70
     0
  9
$USERR1
 40
0.0
  9
$USERR2
 40
0.0
  9
$USERR3
 40
0.0
  9
$USERR4
 40
0.0
  9
$USERR5
 40
0.0
  9
$WORLDVIEW
 70
     1
  9
$SHADEDGE
 70
     3
  9
$SHADEDIF
 70
    70
  9
$TILEMODE
 70
     1
  9
$MAXACTVP
 70
    64
  9
$PINSBASE
 10
0.0
 20
0.0
 30
0.0
  9
$PLIMCHECK
 70
     0
  9
$PEXTMIN
 10
1.000000000000000E+20
 20
1.000000000000000E+20
 30
1.000000000000000E+20
  9
$PEXTMAX
 10
-1.000000000000000E+20
 20
-1.000000000000000E+20
 30
-1.000000000000000E+20
  9
$PLIMMIN
 10
0.0
 20
0.0
  9
$PLIMMAX
 10
12.0
 20
9.0
  9
$UNITMODE
 70
     0
  9
$VISRETAIN
 70
     1
  9
$PLINEGEN
 70
     0
  9
$PSLTSCALE
 70
     1
  9
$TREEDEPTH
 70
  3020
  9
$CMLSTYLE
  2
Standard
  9
$CMLJUST
 70
     0
  9
$CMLSCALE
 40
1.0
  9
$PROXYGRAPHICS
 70
     1
  9
$MEASUREMENT
 70
     0
  9
$CELWEIGHT
370
    -1
  9
$ENDCAPS
280
     0
  9
$JOINSTYLE
280
     0
  9
$LWDISPLAY
290
     0
  9
$INSUNITS
 70
     1
  9
$HYPERLINKBASE
  1

  9
$STYLESHEET
  1

  9
$XEDIT
290
     1
  9
$CEPSNTYPE
380
     0
  9
$PSTYLEMODE
290
     1
  9
$FINGERPRINTGUID
  2
{3596BC31-4FD5-45A4-82F5-92660E71F0FF}
  9
$VERSIONGUID
  2
{FAEB1C32-E019-11D5-929B-00C0DF256EC4}
  9
$EXTNAMES
290
     1
  9
$PSVPSCALE
 40
0.0
  9
$OLESTARTUP
290
     0
  9
$SORTENTS
280
   127
  9
$INDEXCTL
280
     0
  9
$HIDETEXT
280
     1
  9
$XCLIPFRAME
290
     0
  9
$HALOGAP
280
     0
  9
$OBSCOLOR
 70
   257
  9
$OBSLTYPE
280
     0
  9
$INTERSECTIONDISPLAY
280
     0
  9
$INTERSECTIONCOLOR
 70
   257
  9
$DIMASSOC
280
     2
  9
$PROJECTNAME
  1

  9
$CAMERADISPLAY
290
     0
  9
$LENSLENGTH
 40
50.0
  9
$CAMERAHEIGHT
 40
0.0
  9
$STEPSPERSEC
 40
2.0
  9
$STEPSIZE
 40
6.0
  9
$3DDWFPREC
 40
2.0
  9
$PSOLWIDTH
 40
0.25
  9
$PSOLHEIGHT
 40
4.0
  9
$LOFTANG1
 40
1.570796326794897
  9
$LOFTANG2
 40
1.570796326794897
  9
$LOFTMAG1
 40
0.0
  9
$LOFTMAG2
 40
0.0
  9
$LOFTPARAM
 70
     7
  9
$LOFTNORMALS
280
     1
  9
$LATITUDE
 40
37.795
  9
$LONGITUDE
 40
-122.394
  9
$NORTHDIRECTION
 40
0.0
  9
$TIMEZONE
 70
 -8000
  9
$LIGHTGLYPHDISPLAY
280
     1
  9
$TILEMODELIGHTSYNCH
280
     1
  9
$SOLIDHIST
280
     1
  9
$SHOWHIST
280
     1
  9
$DWFFRAME
280
     2
  9
$DGNFRAME
280
     2
  9
$REALWORLDSCALE
290
     1
  9
$INTERFERECOLOR
 62
   256
  9
$CSHADOW
280
     0
  9
$SHADOWPLANELOCATION
 40
0.0
  0
ENDSEC
  0
SECTION
  2
CLASSES
  0
CLASS
  1
ACDBDICTIONARYWDFLT
  2
AcDbDictionaryWithDefault
  3
ObjectDBX Classes
 90
        0
 91
        4
280
     0
281
     0
  0
CLASS
  1
VISUALSTYLE
  2
AcDbVisualStyle
  3
ObjectDBX Classes
 90
     4095
 91
        4
280
     0
281
     0
  0
CLASS
  1
MATERIAL
  2
AcDbMaterial
  3
ObjectDBX Classes
 90
     1153
 91
        4
280
     0
281
     0
  0
ENDSEC
  0
SECTION
  2
TABLES
  0
TABLE
  2
VPORT
  5
8
330
0
100
AcDbSymbolTable
 70
     1
  0
VPORT
  5
29
330
8
100
AcDbSymbolTableRecord
100
AcDbViewportTableRecord
  2
*Active
 70
     0
 10
0.0
 20
0.0
 11
1.0
 21
1.0
 12
10.42990654205607
 22
4.5
 13
0.0
 23
0.0
 14
0.5
 24
0.5
 15
0.5
 25
0.5
 16
0.0
 26
0.0
 36
1.0
 17
0.0
 27
0.0
 37
0.0
 40
9.0
 41
1.972972972850329
 42
50.0
 43
0.0
 44
0.0
 50
0.0
 51
0.0
 71
     0
 72
   100
 73
     1
 74
     3
 75
     0
 76
     0
 77
     0
 78
     0
281
     0
 65
     1
110
0.0
120
0.0
130
0.0
111
1.0
121
0.0
131
0.0
112
0.0
122
1.0
132
0.0
 79
     0
146
0.0
 60
     3
 61
     5
292
     1
282
     1
141
0.0
142
0.0
 63
   250
  0
ENDTAB
  0
TABLE
  2
LTYPE
  5
5
330
0
100
AcDbSymbolTable
 70
     1
  0
LTYPE
  5
14
330
5
100
AcDbSymbolTableRecord
100
AcDbLinetypeTableRecord
  2
ByBlock
 70
     0
  3

 72
    65
 73
     0
 40
0.0
  0
LTYPE
  5
15
330
5
100
AcDbSymbolTableRecord
100
AcDbLinetypeTableRecord
  2
ByLayer
 70
     0
  3

 72
    65
 73
     0
 40
0.0
  0
LTYPE
  5
16
330
5
100
AcDbSymbolTableRecord
100
AcDbLinetypeTableRecord
  2
Continuous
 70
     0
  3
Solid line
 72
    65
 73
     0
 40
0.0
  0
ENDTAB
  0
TABLE
  2
LAYER
  5
2
330
0
100
AcDbSymbolTable
 70
     3
  0
LAYER
  5
10
330
2
100
AcDbSymbolTableRecord
100
AcDbLayerTableRecord
  2
0
 70
     0
 62
     7
  6
Continuous
370
    -3
390
F
347
3E
  0
LAYER
  5
3F
330
2
100
AcDbSymbolTableRecord
100
AcDbLayerTableRecord
  2
VISIBLE
 70
     0
 62
     7
  6
Continuous
370
     0
390
F
347
3E
  0
LAYER
  5
D2
330
2
100
AcDbSymbolTableRecord
100
AcDbLayerTableRecord
  2
TANGENT EDGES
 70
     0
 62
     7
  6
Continuous
370
     0
390
F
347
3E
  0
ENDTAB
  0
TABLE
  2
STYLE
  5
3
330
0
100
AcDbSymbolTable
 70
     1
  0
STYLE
  5
11
330
3
100
AcDbSymbolTableRecord
100
AcDbTextStyleTableRecord
  2
Standard
 70
     0
 40
0.0
 41
1.0
 50
0.0
 71
     0
 42
0.2
  3
txt
  4

  0
ENDTAB
  0
TABLE
  2
VIEW
  5
6
330
0
100
AcDbSymbolTable
 70
     0
  0
ENDTAB
  0
TABLE
  2
UCS
  5
7
330
0
100
AcDbSymbolTable
 70
     0
  0
ENDTAB
  0
TABLE
  2
APPID
  5
9
330
0
100
AcDbSymbolTable
 70
     1
  0
APPID
  5
12
330
9
100
AcDbSymbolTableRecord
100
AcDbRegAppTableRecord
  2
ACAD
 70
     0
  0
ENDTAB
  0
TABLE
  2
DIMSTYLE
  5
A
330
0
100
AcDbSymbolTable
 70
     1
100
AcDbDimStyleTable
  0
DIMSTYLE
105
27
330
A
100
AcDbSymbolTableRecord
100
AcDbDimStyleTableRecord
  2
Standard
 70
     0
178
     0
340
11
  0
ENDTAB
  0
TABLE
  2
BLOCK_RECORD
  5
1
330
0
100
AcDbSymbolTable
 70
     1
  0
BLOCK_RECORD
  5
1F
330
1
100
AcDbSymbolTableRecord
100
AcDbBlockTableRecord
  2
*Model_Space
340
22
 70
     0
280
     1
281
     0
  0
BLOCK_RECORD
  5
1B
330
1
100
AcDbSymbolTableRecord
100
AcDbBlockTableRecord
  2
*Paper_Space
340
1E
 70
     0
280
     1
281
     0
  0
BLOCK_RECORD
  5
23
330
1
100
AcDbSymbolTableRecord
100
AcDbBlockTableRecord
  2
*Paper_Space0
340
26
 70
     0
280
     1
281
     0
  0
ENDTAB
  0
ENDSEC
  0
SECTION
  2
BLOCKS
  0
BLOCK
  5
20
330
1F
100
AcDbEntity
  8
0
100
AcDbBlockBegin
  2
*Model_Space
 70
     0
 10
0.0
 20
0.0
 30
0.0
  3
*Model_Space
  1

  0
ENDBLK
  5
21
330
1F
100
AcDbEntity
  8
0
100
AcDbBlockEnd
  0
BLOCK
  5
1C
330
1B
100
AcDbEntity
 67
     1
  8
0
100
AcDbBlockBegin
  2
*Paper_Space
 70
     0
 10
0.0
 20
0.0
 30
0.0
  3
*Paper_Space
  1

  0
ENDBLK
  5
1D
330
1B
100
AcDbEntity
 67
     1
  8
0
100
AcDbBlockEnd
  0
BLOCK
  5
24
330
23
100
AcDbEntity
  8
0
100
AcDbBlockBegin
  2
*Paper_Space0
 70
     0
 10
0.0
 20
0.0
 30
0.0
  3
*Paper_Space0
  1

  0
ENDBLK
  5
25
330
23
100
AcDbEntity
  8
0
100
AcDbBlockEnd
  0
ENDSEC
  0
SECTION
  2
ENTITIES
  0
LINE
  5
40
330
1F
100
AcDbEntity
  8
VISIBLE
100
AcDbLine
 10
6.956080669647136
 20
6.196657835429825
 30
0.0
 11
6.969525801574148
 21
6.193055223187852
 31
0.0
  0
LINE
  5
41
330
1F
100
AcDbEntity
  8
VISIBLE
100
AcDbLine
 10
5.061394999346394
 20
5.257574280976524
 30
0.0
 11
4.588954054464504
 21
5.257574280976524
 31
0.0
  0
LINE
  5
42
330
1F
100
AcDbEntity
  8
VISIBLE
100
AcDbLine
 10
7.078631364255652
 20
6.256047349172104
 30
0.0
 11
7.413277033546991
 21
5.676424047426613
 31
0.0
  0
ARC
  5
43
330
1F
100
AcDbEntity
  8
VISIBLE
100
AcDbCircle
 10
6.843792898641917
 20
3.73423882254597
 30
0.0
 40
1.576103105036397
100
AcDbArc
 50
169.443258977511
 51
240.0
  0
CIRCLE
  5
44
330
1F
100
AcDbEntity
  8
VISIBLE
100
AcDbCircle
 10
5.132689847080854
 20
2.345324549862361
 30
0.0
 40
0.1082677165354333
  0
LINE
  5
45
330
1F
100
AcDbEntity
  8
VISIBLE
100
AcDbLine
 10
2.223626888336895
 20
5.672821435184641
 30
0.0
 11
2.349780195187385
 21
5.59998678951535
 31
0.0
  0
LINE
  5
46
330
1F
100
AcDbEntity
  8
VISIBLE
100
AcDbLine
 10
4.480686337929071
 20
1.90914908412613
 30
0.0
 11
4.490528857614111
 21
1.89930656444109
 31
0.0
  0
ARC
  5
47
330
1F
100
AcDbEntity
  8
VISIBLE
100
AcDbCircle
 10
3.093289181465217
 20
3.237602652792906
 30
0.0
 40
1.566260585351357
100
AcDbArc
 50
49.50484988330743
 51
120.0
  0
CIRCLE
  5
48
330
1F
100
AcDbEntity
  8
VISIBLE
100
AcDbCircle
 10
8.268162923906743
 20
4.626516925476512
 30
0.0
 40
0.1082677165354333
  0
SPLINE
  5
49
330
1F
100
AcDbEntity
  8
VISIBLE
100
AcDbSpline
210
0.0
220
0.0
230
1.0
 70
     8
 71
     3
 72
    30
 73
    26
 74
     0
 42
0.000000001
 43
0.000001
 12
1.0
 22
0.0
 32
0.0
 13
1.0
 23
0.0
 33
0.0
 40
-6.308638481717771
 40
-6.308638481717771
 40
-6.308638481717771
 40
-6.308638481717771
 40
-6.289794902829053
 40
-6.289794902829053
 40
-5.506198000925553
 40
-5.506198000925553
 40
-4.722601099022054
 40
-4.722601099022054
 40
-3.958917519846438
 40
-3.958917519846438
 40
-3.564895608512363
 40
-3.564895608512363
 40
-3.312178947410438
 40
-3.312178947410438
 40
-3.094053740242877
 40
-3.094053740242877
 40
-2.847599293877131
 40
-2.847599293877131
 40
-2.469712812411404
 40
-2.469712812411404
 40
-1.748968748356529
 40
-1.748968748356529
 40
-0.874484374178265
 40
-0.874484374178265
 40
-0.0000000000000009
 40
-0.0000000000000009
 40
-0.0000000000000009
 40
-0.0000000000000009
 10
7.079111437044244
 20
6.73328166200451
 30
0.0
 10
7.079112162125748
 20
6.735754589926076
 30
0.0
 10
7.079108874806828
 20
6.738227513575832
 30
0.0
 10
7.078798037346682
 20
6.843534204532169
 30
0.0
 10
7.071623214902569
 20
6.947237462837661
 30
0.0
 10
7.041991351538247
 20
7.152032792787688
 30
0.0
 10
7.019679468038881
 20
7.253245393958521
 30
0.0
 10
6.955627183373966
 20
7.445933513621435
 30
0.0
 10
6.91417793331199
 20
7.539780555265144
 30
0.0
 10
6.825648677199194
 20
7.663252217882079
 30
0.0
 10
6.790180621044187
 20
7.7027198389167
 30
0.0
 10
6.721595469182936
 20
7.752716275710391
 30
0.0
 10
6.691437191058681
 20
7.768795358821344
 30
0.0
 10
6.632093026366652
 20
7.786008951123904
 30
0.0
 10
6.602541665808353
 20
7.788888426695284
 30
0.0
 10
6.541903362287383
 20
7.782552096986589
 30
0.0
 10
6.51010558645164
 20
7.771709538282916
 30
0.0
 10
6.438081714459937
 20
7.732647728709585
 30
0.0
 10
6.400174648547055
 20
7.698002394051787
 30
0.0
 10
6.307040275873165
 20
7.587943026982353
 30
0.0
 10
6.262947649729427
 20
7.501172481414015
 30
0.0
 10
6.18725363439026
 20
7.305988417963738
 30
0.0
 10
6.159596632634678
 20
7.193417831656838
 30
0.0
 10
6.123088623725351
 20
6.964906818064609
 30
0.0
 10
6.114544605645608
 20
6.848713962627213
 30
0.0
 10
6.114544605645608
 20
6.733952233732428
 30
0.0
  0
LINE
  5
4A
330
1F
100
AcDbEntity
  8
VISIBLE
100
AcDbLine
 10
4.844859566275527
 20
2.600093966015894
 30
0.0
 11
4.80548948753537
 21
2.600093966015894
 31
0.0
  0
LINE
  5
4B
330
1F
100
AcDbEntity
  8
VISIBLE
100
AcDbLine
 10
6.523709036360886
 20
5.583342747623703
 30
0.0
 11
6.165706408812199
 21
5.376649834237877
 31
0.0
  0
SPLINE
  5
4C
330
1F
100
AcDbEntity
  8
VISIBLE
100
AcDbSpline
210
0.0
220
0.0
230
1.0
 70
     8
 71
     3
 72
    30
 73
    26
 74
     0
 42
0.000000001
 43
0.000001
 12
1.0
 22
0.0
 32
0.0
 13
1.0
 23
0.0
 33
0.0
 40
-6.359020424443178
 40
-6.359020424443178
 40
-6.359020424443178
 40
-6.359020424443178
 40
-5.484536050264911
 40
-5.484536050264911
 40
-4.610051676086643
 40
-4.610051676086643
 40
-3.889307612031768
 40
-3.889307612031768
 40
-3.511421130566042
 40
-3.511421130566042
 40
-3.264966684200297
 40
-3.264966684200297
 40
-3.046841477032735
 40
-3.046841477032735
 40
-2.794124815930811
 40
-2.794124815930811
 40
-2.400102904596736
 40
-2.400102904596736
 40
-1.636419325421121
 40
-1.636419325421121
 40
-0.8528224235176194
 40
-0.8528224235176194
 40
-0.0692255216141173
 40
-0.0692255216141173
 40
-0.0503819427253545
 40
-0.0503819427253545
 40
-0.0503819427253545
 40
-0.0503819427253545
 10
3.535804448165291
 20
6.733952233732429
 30
0.0
 10
3.535804448165291
 20
6.848713962627215
 30
0.0
 10
3.527260430085549
 20
6.964906818064611
 30
0.0
 10
3.490752421176222
 20
7.193417831656843
 30
0.0
 10
3.46309541942064
 20
7.305988417963742
 30
0.0
 10
3.387401404081472
 20
7.501172481414018
 30
0.0
 10
3.343308777937735
 20
7.587943026982359
 30
0.0
 10
3.250174405263844
 20
7.698002394051793
 30
0.0
 10
3.212267339350962
 20
7.73264772870959
 30
0.0
 10
3.140243467359261
 20
7.771709538282921
 30
0.0
 10
3.108445691523517
 20
7.782552096986594
 30
0.0
 10
3.047807388002547
 20
7.788888426695288
 30
0.0
 10
3.018256027444247
 20
7.786008951123909
 30
0.0
 10
2.958911862752219
 20
7.768795358821349
 30
0.0
 10
2.928753584627964
 20
7.752716275710396
 30
0.0
 10
2.860168432766713
 20
7.702719838916705
 30
0.0
 10
2.824700376611706
 20
7.663252217882084
 30
0.0
 10
2.73617112049891
 20
7.53978055526515
 30
0.0
 10
2.694721870436934
 20
7.445933513621441
 30
0.0
 10
2.63066958577202
 20
7.253245393958526
 30
0.0
 10
2.608357702272654
 20
7.152032792787693
 30
0.0
 10
2.578725838908331
 20
6.947237462837665
 30
0.0
 10
2.571551016464218
 20
6.843534204532173
 30
0.0
 10
2.571240179004072
 20
6.738227513575829
 30
0.0
 10
2.571236891685152
 20
6.735754589926067
 30
0.0
 10
2.571237616766654
 20
6.733281662004496
 30
0.0
  0
LINE
  5
4D
330
1F
100
AcDbEntity
  8
VISIBLE
100
AcDbLine
 10
7.082233976497625
 20
6.269492481099116
 30
0.0
 11
6.956080669647136
 21
6.196657835429825
 31
0.0
  0
SPLINE
  5
4E
330
1F
100
AcDbEntity
  8
VISIBLE
100
AcDbSpline
210
0.0
220
0.0
230
1.0
 70
     8
 71
     3
 72
    32
 73
    28
 74
     0
 42
0.000000001
 43
0.000001
 12
1.0
 22
0.0
 32
0.0
 13
1.0
 23
0.0
 33
0.0
 40
-6.306935134333399
 40
-6.306935134333399
 40
-6.306935134333399
 40
-6.306935134333399
 40
-6.289794902829051
 40
-6.289794902829051
 40
-5.506198000925551
 40
-5.506198000925551
 40
-4.722601099022051
 40
-4.722601099022051
 40
-3.958917519846438
 40
-3.958917519846438
 40
-3.564895608512362
 40
-3.564895608512362
 40
-3.312178947410438
 40
-3.312178947410438
 40
-3.228907268294406
 40
-3.228907268294406
 40
-3.094053740242875
 40
-3.094053740242875
 40
-2.84759929387713
 40
-2.84759929387713
 40
-2.469712812411403
 40
-2.469712812411403
 40
-1.74896874835653
 40
-1.74896874835653
 40
-0.8744843741782649
 40
-0.8744843741782649
 40
0.0
 40
0.0
 40
0.0
 40
0.0
 10
1.818032902781208
 20
5.446411321422934
 30
0.0
 10
1.816076464744288
 20
5.445281768243533
 30
0.0
 10
1.814121710025694
 20
5.444149338032307
 30
0.0
 10
1.722880976799985
 20
5.391111771836089
 30
0.0
 10
1.636287005611198
 20
5.332798527593729
 30
0.0
 10
1.472964462182891
 20
5.204123981819771
 30
0.0
 10
1.396060270459546
 20
5.133836564376058
 30
0.0
 10
1.260285672314488
 20
4.980976899343586
 30
0.0
 10
1.199191486461854
 20
4.897531619153245
 30
0.0
 10
1.135609951173585
 20
4.757102835938186
 30
0.0
 10
1.118806392951753
 20
4.705742352736944
 30
0.0
 10
1.1095527966176
 20
4.619023669248164
 30
0.0
 10
1.110709231441303
 20
4.583695940294869
 30
0.0
 10
1.12167627649317
 20
4.539128309482489
 30
0.0
 10
1.125180371688218
 20
4.528162332350515
 30
0.0
 10
1.136483197031815
 20
4.50019748984928
 30
0.0
 10
1.145626253340826
 20
4.48371054978157
 30
0.0
 10
1.17632412823161
 20
4.441404859801709
 30
0.0
 10
1.202670157529001
 20
4.418407486465489
 30
0.0
 10
1.274831445576309
 20
4.374140174618145
 30
0.0
 10
1.324924784736396
 20
4.358354672555201
 30
0.0
 10
1.469296041437154
 20
4.332277896836866
 30
0.0
 10
1.567383745844235
 20
4.33761958745226
 30
0.0
 10
1.775872992401963
 20
4.369907686730019
 30
0.0
 10
1.887786900385571
 20
4.402434958410644
 30
0.0
 10
2.104998657680369
 20
4.485479400540866
 30
0.0
 10
2.210344442184927
 20
4.536396211037278
 30
0.0
 10
2.310158888789539
 20
4.594024108653465
 30
0.0
  0
ARC
  5
4F
330
1F
100
AcDbEntity
  8
VISIBLE
100
AcDbCircle
 10
9.039183615381477
 20
7.001557184622926
 30
0.0
 40
1.978346456692914
100
AcDbArc
 50
187.7936596700586
 51
232.2063403299413
  0
ARC
  5
50
330
1F
100
AcDbEntity
  8
VISIBLE
100
AcDbCircle
 10
3.093289181465217
 20
3.237602652792906
 30
0.0
 40
1.576103105036397
100
AcDbArc
 50
49.44325897751101
 51
120.0
  0
CIRCLE
  5
51
330
1F
100
AcDbEntity
  8
VISIBLE
100
AcDbCircle
 10
3.053520983598363
 20
5.946550658929279
 30
0.0
 40
0.0984251968503935
  0
LINE
  5
52
330
1F
100
AcDbEntity
  8
VISIBLE
100
AcDbLine
 10
2.349780195187385
 20
5.59998678951535
 30
0.0
 11
2.694268384163763
 21
6.196657835429826
 31
0.0
  0
SPLINE
  5
53
330
1F
100
AcDbEntity
  8
VISIBLE
100
AcDbSpline
210
0.0
220
0.0
230
1.0
 70
     8
 71
     3
 72
    32
 73
    28
 74
     0
 42
0.000000001
 43
0.000001
 12
1.0
 22
0.0
 32
0.0
 13
1.0
 23
0.0
 33
0.0
 40
-6.457814538873666
 40
-6.457814538873666
 40
-6.457814538873666
 40
-6.457814538873666
 40
-5.583330164695397
 40
-5.583330164695397
 40
-4.708845790517129
 40
-4.708845790517129
 40
-3.988101726462254
 40
-3.988101726462254
 40
-3.610215244996528
 40
-3.610215244996528
 40
-3.363760798630784
 40
-3.363760798630784
 40
-3.228907269436833
 40
-3.228907269436833
 40
-3.145635591463223
 40
-3.145635591463223
 40
-2.8929189303613
 40
-2.8929189303613
 40
-2.498897019027226
 40
-2.498897019027226
 40
-1.735213439851618
 40
-1.735213439851618
 40
-0.95161653794812
 40
-0.95161653794812
 40
-0.1680196360446222
 40
-0.1680196360446222
 40
-0.1491761882212441
 40
-0.1491761882212441
 40
-0.1491761882212441
 40
-0.1491761882212441
 10
7.345111424863878
 20
4.602547980737954
 30
0.0
 10
7.444497997468986
 20
4.545167116290561
 30
0.0
 10
7.549395971055894
 20
4.494470025279314
 30
0.0
 10
7.765546318325962
 20
4.411831381640264
 30
0.0
 10
7.876863806664437
 20
4.379497754599658
 30
0.0
 10
8.083745171695833
 20
4.347458663072689
 30
0.0
 10
8.18093698153012
 20
4.342258724648565
 30
0.0
 10
8.32281837567363
 20
4.367885773814964
 30
0.0
 10
8.371775648566338
 20
4.383391588549553
 30
0.0
 10
8.441616103970485
 20
4.426235186586619
 30
0.0
 10
8.466904923167759
 20
4.448351588892379
 30
0.0
 10
8.496293494615198
 20
4.488852887338274
 30
0.0
 10
8.505035541942835
 20
4.504615698945023
 30
0.0
 10
8.515861167664115
 20
4.531399879965375
 30
0.0
 10
8.519222219919511
 20
4.541914365423144
 30
0.0
 10
8.529758152829096
 20
4.584730052416099
 30
0.0
 10
8.530912397447578
 20
4.618887428961576
 30
0.0
 10
8.521906789016164
 20
4.703282131192678
 30
0.0
 10
8.505460854650748
 20
4.753732179363078
 30
0.0
 10
8.44279588623338
 20
4.892136595443364
 30
0.0
 10
8.3822465891309
 20
4.974956219786702
 30
0.0
 10
8.247399924827821
 20
5.126771185308408
 30
0.0
 10
8.17090318278046
 20
5.196700143810554
 30
0.0
 10
8.008361156149482
 20
5.324759755220541
 30
0.0
 10
7.922138911223763
 20
5.382824962877531
 30
0.0
 10
7.831096075267512
 20
5.435747492848615
 30
0.0
 10
7.828956105173411
 20
5.436986803256927
 30
0.0
 10
7.826814110776847
 20
5.4382226503402
 30
0.0
  0
ARC
  5
54
330
1F
100
AcDbEntity
  8
VISIBLE
100
AcDbCircle
 10
0.611165438429425
 20
7.001557184622934
 30
0.0
 40
1.968503937007875
100
AcDbArc
 50
307.8131707736498
 51
352.186829245688
  0
LINE
  5
55
330
1F
100
AcDbEntity
  8
VISIBLE
100
AcDbLine
 10
6.19883658010929
 20
5.338951733657933
 30
0.0
 11
6.179151540739211
 21
5.373047221995903
 31
0.0
  0
LINE
  5
56
330
1F
100
AcDbEntity
  8
VISIBLE
100
AcDbLine
 10
7.304171470865486
 20
5.613431921442362
 30
0.0
 11
6.969525801574148
 21
6.193055223187852
 31
0.0
  0
SPLINE
  5
57
330
1F
100
AcDbEntity
  8
VISIBLE
100
AcDbSpline
210
0.0
220
0.0
230
1.0
 70
     8
 71
     3
 72
    30
 73
    26
 74
     0
 42
0.000000001
 43
0.000001
 12
1.0
 22
0.0
 32
0.0
 13
1.0
 23
0.0
 33
0.0
 40
-6.306935241246525
 40
-6.306935241246525
 40
-6.306935241246525
 40
-6.306935241246525
 40
-6.289794902829053
 40
-6.289794902829053
 40
-5.506198000925553
 40
-5.506198000925553
 40
-4.722601099022054
 40
-4.722601099022054
 40
-3.958917519846438
 40
-3.958917519846438
 40
-3.564895608512363
 40
-3.564895608512363
 40
-3.312178947410438
 40
-3.312178947410438
 40
-3.094053740242877
 40
-3.094053740242877
 40
-2.847599293877131
 40
-2.847599293877131
 40
-2.469712812411404
 40
-2.469712812411404
 40
-1.748968748356529
 40
-1.748968748356529
 40
-0.874484374178265
 40
-0.874484374178265
 40
-0.0000000000000009
 40
-0.0000000000000009
 40
-0.0000000000000009
 40
-0.0000000000000009
 10
7.088954055013582
 20
6.733952233693063
 30
0.0
 10
7.088954054768013
 20
6.73621132084657
 30
0.0
 10
7.088950720424235
 20
6.738470402983118
 30
0.0
 10
7.088639207314673
 20
6.844005993005549
 30
0.0
 10
7.081435442018096
 20
6.948155193990797
 30
0.0
 10
7.051661288271578
 20
7.153933938497376
 30
0.0
 10
7.029242695060594
 20
7.255678630909159
 30
0.0
 10
6.964749641001022
 20
7.449692714607639
 30
0.0
 10
6.923031001456593
 20
7.544324471674718
 30
0.0
 10
6.833206875413949
 20
7.669602088053507
 30
0.0
 10
6.797129171321945
 20
7.709834637948205
 30
0.0
 10
6.726655386604996
 20
7.761207829194339
 30
0.0
 10
6.695482458461582
 20
7.777870191735838
 30
0.0
 10
6.633710033455163
 20
7.795788134386461
 30
0.0
 10
6.602787147627641
 20
7.798810186893991
 30
0.0
 10
6.539447319627415
 20
7.792191564495319
 30
0.0
 10
6.506357995449237
 20
7.780873920503038
 30
0.0
 10
6.431940734808537
 20
7.740514067807936
 30
0.0
 10
6.393223419430492
 20
7.705024714566383
 30
0.0
 10
6.298454640859244
 20
7.59303392654641
 30
0.0
 10
6.254036828427792
 20
7.505416637423281
 30
0.0
 10
6.177754519363382
 20
7.308715603849532
 30
0.0
 10
6.149967008962796
 20
7.19553168065862
 30
0.0
 10
6.113279726843277
 20
6.965898559775555
 30
0.0
 10
6.104702085960568
 20
6.849208028964799
 30
0.0
 10
6.104702085960568
 20
6.733952233732428
 30
0.0
  0
LINE
  5
58
330
1F
100
AcDbEntity
  8
VISIBLE
100
AcDbLine
 10
2.568115077313274
 20
6.269492481099117
 30
0.0
 11
2.223626888336895
 21
5.672821435184642
 31
0.0
  0
LINE
  5
59
330
1F
100
AcDbEntity
  8
VISIBLE
100
AcDbLine
 10
4.80548948753537
 20
2.993794753417468
 30
0.0
 11
4.844859566275527
 21
2.993794753417468
 31
0.0
  0
CIRCLE
  5
5A
330
1F
100
AcDbEntity
  8
VISIBLE
100
AcDbCircle
 10
4.825174526905449
 20
4.568597903023768
 30
0.0
 40
0.1673228346456694
  0
LINE
  5
5B
330
1F
100
AcDbEntity
  8
VISIBLE
100
AcDbLine
 10
5.159820196196788
 20
1.89930656444109
 30
0.0
 11
5.159820196196788
 21
1.773322312472587
 31
0.0
  0
LINE
  5
5C
330
1F
100
AcDbEntity
  8
VISIBLE
100
AcDbLine
 10
2.223626888336895
 20
5.672821435184641
 30
0.0
 11
2.237072020263907
 21
5.676424047426615
 31
0.0
  0
LINE
  5
5D
330
1F
100
AcDbEntity
  8
VISIBLE
100
AcDbLine
 10
3.471197513071687
 20
5.373047221995903
 30
0.0
 11
3.451512473701608
 21
5.338951733657933
 31
0.0
  0
LINE
  5
5E
330
1F
100
AcDbEntity
  8
VISIBLE
100
AcDbLine
 10
4.854702085960567
 20
3.003637273102508
 30
0.0
 11
4.795646967850331
 21
3.003637273102508
 31
0.0
  0
CIRCLE
  5
5F
330
1F
100
AcDbEntity
  8
VISIBLE
100
AcDbCircle
 10
6.596828070212536
 20
5.946550658929279
 30
0.0
 40
0.0984251968503935
  0
LINE
  5
60
330
1F
100
AcDbEntity
  8
VISIBLE
100
AcDbLine
 10
6.179151540739211
 20
5.373047221995903
 30
0.0
 11
6.520106424118912
 21
5.56989761569669
 31
0.0
  0
LINE
  5
61
330
1F
100
AcDbEntity
  8
VISIBLE
100
AcDbLine
 10
4.587265098759827
 20
5.247731761291485
 30
0.0
 11
5.06308395505108
 21
5.247731761291485
 31
0.0
  0
LINE
  5
62
330
1F
100
AcDbEntity
  8
VISIBLE
100
AcDbLine
 10
3.484642644998699
 20
5.376649834237877
 30
0.0
 11
3.471197513071687
 21
5.373047221995903
 31
0.0
  0
SPLINE
  5
63
330
1F
100
AcDbEntity
  8
VISIBLE
100
AcDbSpline
210
0.0
220
0.0
230
1.0
 70
     8
 71
     3
 72
    30
 73
    26
 74
     0
 42
0.000000001
 43
0.000001
 12
1.0
 22
0.0
 32
0.0
 13
1.0
 23
0.0
 33
0.0
 40
-6.381791155451006
 40
-6.381791155451006
 40
-6.381791155451006
 40
-6.381791155451006
 40
-5.507306781272739
 40
-5.507306781272739
 40
-4.632822407094472
 40
-4.632822407094472
 40
-3.912078343039598
 40
-3.912078343039598
 40
-3.53419186157387
 40
-3.53419186157387
 40
-3.287737415208127
 40
-3.287737415208127
 40
-3.069612208040564
 40
-3.069612208040564
 40
-2.816895546938642
 40
-2.816895546938642
 40
-2.422873635604568
 40
-2.422873635604568
 40
-1.659190056428957
 40
-1.659190056428957
 40
-0.8755931545254583
 40
-0.8755931545254583
 40
-0.0919962526219598
 40
-0.0919962526219598
 40
-0.0731527037840809
 40
-0.0731527037840809
 40
-0.0731527037840809
 40
-0.0731527037840809
 10
3.594607707687175
 20
2.36929349460092
 30
0.0
 10
3.495221135082068
 20
2.311912630153527
 30
0.0
 10
3.398867179574901
 20
2.246416865727378
 30
0.0
 10
3.219224841214161
 20
2.100544495774196
 30
0.0
 10
3.135564354631269
 20
2.020307536507902
 30
0.0
 10
3.00437700493904
 20
1.857162564584596
 30
0.0
 10
2.951277821248491
 20
1.775591957440379
 30
0.0
 10
2.90253079977887
 20
1.639905541204546
 30
0.0
 10
2.891480592799045
 20
1.58975439181216
 30
0.0
 10
2.893664009386601
 20
1.507848984201762
 30
0.0
 10
2.900172966025067
 20
1.47489002319233
 30
0.0
 10
2.925004695291069
 20
1.419207547046431
 30
0.0
 10
2.942274074564611
 20
1.395055055872239
 30
0.0
 10
2.98685356513503
 20
1.352268297833854
 30
0.0
 10
3.015857598640804
 20
1.33419000439933
 30
0.0
 10
3.093448358933468
 20
1.299791738961919
 30
0.0
 10
3.14536234945389
 20
1.288809311826141
 30
0.0
 10
3.296556573984054
 20
1.273876558362787
 30
0.0
 10
3.398555121148509
 20
1.284903975663157
 30
0.0
 10
3.597454070116506
 20
1.325777129804365
 30
0.0
 10
3.696262695663233
 20
1.357060772473051
 30
0.0
 10
3.888436585658533
 20
1.433796491013092
 30
0.0
 10
3.981833653028365
 20
1.479434541661593
 30
0.0
 10
4.073187337893971
 20
1.531818692041077
 30
0.0
 10
4.075330596410881
 20
1.533052306700659
 30
0.0
 10
4.077471855874956
 20
1.534289400242435
 30
0.0
  0
LINE
  5
64
330
1F
100
AcDbEntity
  8
VISIBLE
100
AcDbLine
 10
4.49052885761411
 20
1.773322312472587
 30
0.0
 11
4.48068633792907
 21
1.763479792787547
 31
0.0
  0
ARC
  5
65
330
1F
100
AcDbEntity
  8
VISIBLE
100
AcDbCircle
 10
0.611165438429425
 20
7.001557184622934
 30
0.0
 40
1.978346456692915
100
AcDbArc
 50
307.7936596700585
 51
352.2063403299408
  0
LINE
  5
66
330
1F
100
AcDbEntity
  8
VISIBLE
100
AcDbLine
 10
4.795646967850331
 20
3.003637273102508
 30
0.0
 11
4.80548948753537
 21
2.993794753417468
 31
0.0
  0
ARC
  5
67
330
1F
100
AcDbEntity
  8
VISIBLE
100
AcDbCircle
 10
4.538441500609213
 20
6.733952233732429
 30
0.0
 40
1.576103105036397
100
AcDbArc
 50
289.4432589775109
 51
359.9999999999999
  0
ARC
  5
68
330
1F
100
AcDbEntity
  8
VISIBLE
100
AcDbCircle
 10
4.825174526905444
 20
-0.2973206601745568
 30
0.0
 40
1.968503937007874
100
AcDbArc
 50
67.81317075687015
 51
112.186829245688
  0
ARC
  5
69
330
1F
100
AcDbEntity
  8
VISIBLE
100
AcDbCircle
 10
5.111907553201691
 20
6.733952233732433
 30
0.0
 40
1.576103105036399
100
AcDbArc
 50
180.0000000000001
 51
250.5567410224892
  0
LINE
  5
6A
330
1F
100
AcDbEntity
  8
VISIBLE
100
AcDbLine
 10
6.195233967867317
 20
5.325506601730921
 30
0.0
 11
6.553236595416003
 21
5.532199515116748
 31
0.0
  0
LINE
  5
6B
330
1F
100
AcDbEntity
  8
VISIBLE
100
AcDbLine
 10
3.455115085943581
 20
5.325506601730921
 30
0.0
 11
3.484642644998699
 21
5.376649834237877
 31
0.0
  0
CIRCLE
  5
6C
330
1F
100
AcDbEntity
  8
VISIBLE
100
AcDbCircle
 10
2.746005663422955
 20
5.413918500279665
 30
0.0
 40
0.098425196850394
  0
LINE
  5
6D
330
1F
100
AcDbEntity
  8
VISIBLE
100
AcDbLine
 10
4.355982067148275
 20
4.022995365315975
 30
0.0
 11
4.346613717211442
 21
4.019536784019584
 31
0.0
  0
LINE
  5
6E
330
1F
100
AcDbEntity
  8
VISIBLE
100
AcDbLine
 10
2.346177582945411
 20
5.613431921442363
 30
0.0
 11
2.237072020263907
 21
5.676424047426615
 31
0.0
  0
LINE
  5
6F
330
1F
100
AcDbEntity
  8
VISIBLE
100
AcDbLine
 10
5.303735336599451
 20
4.01953678401957
 30
0.0
 11
5.539955809040396
 21
4.42868264407521
 31
0.0
  0
LINE
  5
70
330
1F
100
AcDbEntity
  8
VISIBLE
100
AcDbLine
 10
4.49052885761411
 20
1.773322312472587
 30
0.0
 11
4.490528857614111
 21
1.89930656444109
 31
0.0
  0
LINE
  5
71
330
1F
100
AcDbEntity
  8
VISIBLE
100
AcDbLine
 10
6.179151540739211
 20
5.373047221995903
 30
0.0
 11
6.165706408812198
 21
5.376649834237876
 31
0.0
  0
SPLINE
  5
72
330
1F
100
AcDbEntity
  8
VISIBLE
100
AcDbSpline
210
0.0
220
0.0
230
1.0
 70
     8
 71
     3
 72
    30
 73
    26
 74
     0
 42
0.000000001
 43
0.000001
 12
1.0
 22
0.0
 32
0.0
 13
1.0
 23
0.0
 33
0.0
 40
-6.306935216500447
 40
-6.306935216500447
 40
-6.306935216500447
 40
-6.306935216500447
 40
-6.28979490282904
 40
-6.28979490282904
 40
-5.506198000925544
 40
-5.506198000925544
 40
-4.722601099022047
 40
-4.722601099022047
 40
-3.958917519846436
 40
-3.958917519846436
 40
-3.564895608512362
 40
-3.564895608512362
 40
-3.312178947410439
 40
-3.312178947410439
 40
-3.094053740242876
 40
-3.094053740242876
 40
-2.847599293877133
 40
-2.847599293877133
 40
-2.469712812411405
 40
-2.469712812411405
 40
-1.74896874835653
 40
-1.74896874835653
 40
-0.874484374178265
 40
-0.874484374178265
 40
0.0
 40
0.0
 40
0.0
 40
0.0
 10
5.568536621072657
 20
1.525430157296575
 30
0.0
 10
5.570493051078331
 20
1.524300612579494
 30
0.0
 10
5.572451140913448
 20
1.52317395935198
 30
0.0
 10
5.664003396601694
 20
1.470675944229662
 30
0.0
 10
5.757801133087056
 20
1.424839987486775
 30
0.0
 10
5.95089783026188
 20
1.347735788754152
 30
0.0
 10
6.05022061519621
 20
1.316278513786084
 30
0.0
 10
6.250488267400838
 20
1.275124095120077
 30
0.0
 10
6.3533010927979
 20
1.263937618243339
 30
0.0
 10
6.506706754128814
 20
1.279088785079611
 30
0.0
 10
6.55958801644265
 20
1.290216718386154
 30
0.0
 10
6.639315397493751
 20
1.325562210628801
 30
0.0
 10
6.669331890813464
 20
1.344227577040596
 30
0.0
 10
6.715735496835666
 20
1.388765095024212
 30
0.0
 10
6.733814113992517
 20
1.414034073455405
 30
0.0
 10
6.759752132857322
 20
1.472197284774274
 30
0.0
 10
6.766495427738109
 20
1.506512302102776
 30
0.0
 10
6.768751400331502
 20
1.591139466645223
 30
0.0
 10
6.757375376549461
 20
1.642414321949718
 30
0.0
 10
6.70777289841995
 20
1.780481885688027
 30
0.0
 10
6.654103006444319
 20
1.862757484195762
 30
0.0
 10
6.521896068951002
 20
2.027170418491752
 30
0.0
 10
6.437769671367979
 20
2.107827070002039
 30
0.0
 10
6.2572451961927
 20
2.254415748754883
 30
0.0
 10
6.160477052570851
 20
2.320189469069225
 30
0.0
 10
6.060662605966239
 20
2.377817366685411
 30
0.0
  0
LINE
  5
73
330
1F
100
AcDbEntity
  8
VISIBLE
100
AcDbLine
 10
6.553236595416003
 20
5.532199515116748
 30
0.0
 11
6.523709036360884
 21
5.583342747623703
 31
0.0
  0
LINE
  5
74
330
1F
100
AcDbEntity
  8
VISIBLE
100
AcDbLine
 10
7.413277033546991
 20
5.676424047426613
 30
0.0
 11
7.304171470865486
 21
5.613431921442362
 31
0.0
  0
LINE
  5
75
330
1F
100
AcDbEntity
  8
VISIBLE
100
AcDbLine
 10
3.451512473701608
 20
5.338951733657933
 30
0.0
 11
3.455115085943581
 21
5.325506601730921
 31
0.0
  0
CIRCLE
  5
76
330
1F
100
AcDbEntity
  8
VISIBLE
100
AcDbCircle
 10
1.382186129904153
 20
4.626516925476515
 30
0.0
 40
0.098425196850394
  0
CIRCLE
  5
77
330
1F
100
AcDbEntity
  8
VISIBLE
100
AcDbCircle
 10
6.496509380599655
 20
1.55792297505921
 30
0.0
 40
0.1082677165354324
  0
LINE
  5
78
330
1F
100
AcDbEntity
  8
VISIBLE
100
AcDbLine
 10
6.53979146348899
 20
5.53580212735872
 30
0.0
 11
6.553236595416003
 21
5.532199515116748
 31
0.0
  0
LINE
  5
79
330
1F
100
AcDbEntity
  8
VISIBLE
100
AcDbLine
 10
4.795646967850331
 20
3.003637273102508
 30
0.0
 11
4.795646967850331
 21
2.590251446330854
 31
0.0
  0
LINE
  5
7A
330
1F
100
AcDbEntity
  8
VISIBLE
100
AcDbLine
 10
5.303735336599452
 20
4.019536784019575
 30
0.0
 11
5.294366986662616
 21
4.022995365315964
 31
0.0
  0
LINE
  5
7B
330
1F
100
AcDbEntity
  8
VISIBLE
100
AcDbLine
 10
3.484642644998699
 20
5.376649834237877
 30
0.0
 11
3.126640017450013
 21
5.583342747623703
 31
0.0
  0
LINE
  5
7C
330
1F
100
AcDbEntity
  8
VISIBLE
100
AcDbLine
 10
7.300568858623514
 20
5.599986789515349
 30
0.0
 11
7.304171470865486
 21
5.613431921442362
 31
0.0
  0
LINE
  5
7D
330
1F
100
AcDbEntity
  8
VISIBLE
100
AcDbLine
 10
7.300568858623514
 20
5.599986789515349
 30
0.0
 11
7.426722165474002
 21
5.672821435184639
 31
0.0
  0
CIRCLE
  5
7E
330
1F
100
AcDbEntity
  8
VISIBLE
100
AcDbCircle
 10
4.517659206730041
 20
2.345324549862361
 30
0.0
 40
0.0984251968503935
  0
LINE
  5
7F
330
1F
100
AcDbEntity
  8
VISIBLE
100
AcDbLine
 10
5.532276414808241
 20
4.435066582463843
 30
0.0
 11
5.539955809040389
 21
4.428682644075197
 31
0.0
  0
LINE
  5
80
330
1F
100
AcDbEntity
  8
VISIBLE
100
AcDbLine
 10
4.80548948753537
 20
2.600093966015894
 30
0.0
 11
4.80548948753537
 21
2.993794753417468
 31
0.0
  0
LINE
  5
81
330
1F
100
AcDbEntity
  8
VISIBLE
100
AcDbLine
 10
6.520106424118912
 20
5.56989761569669
 30
0.0
 11
6.53979146348899
 21
5.53580212735872
 31
0.0
  0
CIRCLE
  5
82
330
1F
100
AcDbEntity
  8
VISIBLE
100
AcDbCircle
 10
6.596828070212536
 20
7.521353808535579
 30
0.0
 40
0.0984251968503935
  0
LINE
  5
83
330
1F
100
AcDbEntity
  8
VISIBLE
100
AcDbLine
 10
3.110557590321908
 20
5.535802127358721
 30
0.0
 11
3.130242629691987
 21
5.569897615696691
 31
0.0
  0
LINE
  5
84
330
1F
100
AcDbEntity
  8
VISIBLE
100
AcDbLine
 10
4.48068633792907
 20
1.763479792787547
 30
0.0
 11
5.169662715881827
 21
1.763479792787547
 31
0.0
  0
LINE
  5
85
330
1F
100
AcDbEntity
  8
VISIBLE
100
AcDbLine
 10
5.532276414808242
 20
4.435066582463845
 30
0.0
 11
5.294366986662616
 21
4.022995365315965
 31
0.0
  0
LINE
  5
86
330
1F
100
AcDbEntity
  8
VISIBLE
100
AcDbLine
 10
2.571717689555247
 20
6.256047349172105
 30
0.0
 11
2.568115077313274
 21
6.269492481099117
 31
0.0
  0
LINE
  5
87
330
1F
100
AcDbEntity
  8
VISIBLE
100
AcDbLine
 10
4.80548948753537
 20
2.600093966015894
 30
0.0
 11
4.795646967850331
 21
2.590251446330854
 31
0.0
  0
LINE
  5
88
330
1F
100
AcDbEntity
  8
VISIBLE
100
AcDbLine
 10
2.571237617374198
 20
6.733281662004671
 30
0.0
 11
2.561394999620931
 21
6.733952233713657
 31
0.0
  0
CIRCLE
  5
89
330
1F
100
AcDbEntity
  8
VISIBLE
100
AcDbCircle
 10
8.268162923906743
 20
4.626516925476512
 30
0.0
 40
0.0984251968503944
  0
LINE
  5
8A
330
1F
100
AcDbEntity
  8
VISIBLE
100
AcDbLine
 10
4.587265098759827
 20
5.247731761291485
 30
0.0
 11
4.58895405446451
 21
5.257574280976524
 31
0.0
  0
LINE
  5
8B
330
1F
100
AcDbEntity
  8
VISIBLE
100
AcDbLine
 10
7.082233976497625
 20
6.269492481099116
 30
0.0
 11
7.078631364255652
 21
6.256047349172104
 31
0.0
  0
LINE
  5
8C
330
1F
100
AcDbEntity
  8
VISIBLE
100
AcDbLine
 10
4.795646967850331
 20
2.590251446330854
 30
0.0
 11
4.854702085960567
 21
2.590251446330854
 31
0.0
  0
LINE
  5
8D
330
1F
100
AcDbEntity
  8
VISIBLE
100
AcDbLine
 10
1.823534945702757
 20
5.438222645714761
 30
0.0
 11
1.818032904537586
 21
5.446411317102724
 31
0.0
  0
ARC
  5
8E
330
1F
100
AcDbEntity
  8
VISIBLE
100
AcDbCircle
 10
9.039183615381477
 20
7.001557184622926
 30
0.0
 40
1.968503937007875
100
AcDbArc
 50
187.813170755478
 51
232.186829245688
  0
LINE
  5
8F
330
1F
100
AcDbEntity
  8
VISIBLE
100
AcDbLine
 10
2.571717689555247
 20
6.256047349172105
 30
0.0
 11
2.68082325223675
 21
6.193055223187853
 31
0.0
  0
ARC
  5
90
330
1F
100
AcDbEntity
  8
VISIBLE
100
AcDbCircle
 10
6.843792898641917
 20
3.73423882254597
 30
0.0
 40
1.566260585351357
100
AcDbArc
 50
169.5048498833074
 51
240.0
  0
LINE
  5
91
330
1F
100
AcDbEntity
  8
VISIBLE
100
AcDbLine
 10
5.169662715881827
 20
1.763479792787547
 30
0.0
 11
5.169662715881827
 21
1.90914908412613
 31
0.0
  0
LINE
  5
92
330
1F
100
AcDbEntity
  8
VISIBLE
100
AcDbLine
 10
3.130242629691987
 20
5.569897615696691
 30
0.0
 11
3.126640017450014
 21
5.583342747623703
 31
0.0
  0
LINE
  5
93
330
1F
100
AcDbEntity
  8
VISIBLE
100
AcDbLine
 10
6.956080669647136
 20
6.196657835429825
 30
0.0
 11
7.300568858623514
 21
5.599986789515349
 31
0.0
  0
LINE
  5
94
330
1F
100
AcDbEntity
  8
VISIBLE
100
AcDbLine
 10
7.079111436436701
 20
6.733281662004686
 30
0.0
 11
7.088954054189968
 21
6.733952233713683
 31
0.0
  0
CIRCLE
  5
95
330
1F
100
AcDbEntity
  8
VISIBLE
100
AcDbCircle
 10
4.825174526905449
 20
4.568597903023768
 30
0.0
 40
0.1771653543307092
  0
ARC
  5
96
330
1F
100
AcDbEntity
  8
VISIBLE
100
AcDbCircle
 10
4.825174526905444
 20
-0.2973206601745568
 30
0.0
 40
1.978346456692914
100
AcDbArc
 50
67.79365967005886
 51
112.2063403299415
  0
LINE
  5
97
330
1F
100
AcDbEntity
  8
VISIBLE
100
AcDbLine
 10
4.490528857614111
 20
1.89930656444109
 30
0.0
 11
5.159820196196788
 21
1.89930656444109
 31
0.0
  0
CIRCLE
  5
98
330
1F
100
AcDbEntity
  8
VISIBLE
100
AcDbCircle
 10
2.746005663422955
 20
5.413918500279665
 30
0.0
 40
0.1082677165354329
  0
CIRCLE
  5
99
330
1F
100
AcDbEntity
  8
VISIBLE
100
AcDbCircle
 10
1.382186129904153
 20
4.626516925476515
 30
0.0
 40
0.1082677165354333
  0
ARC
  5
9A
330
1F
100
AcDbEntity
  8
VISIBLE
100
AcDbCircle
 10
2.806556155168972
 20
3.734238822545974
 30
0.0
 40
1.5761031050364
100
AcDbArc
 50
300.0000000000001
 51
10.55674102248923
  0
SPLINE
  5
9B
330
1F
100
AcDbEntity
  8
VISIBLE
100
AcDbSpline
210
0.0
220
0.0
230
1.0
 70
     8
 71
     3
 72
    32
 73
    28
 74
     0
 42
0.000000001
 43
0.000001
 12
1.0
 22
0.0
 32
0.0
 13
1.0
 23
0.0
 33
0.0
 40
-6.308638350652416
 40
-6.308638350652416
 40
-6.308638350652416
 40
-6.308638350652416
 40
-6.289794902829051
 40
-6.289794902829051
 40
-5.506198000925551
 40
-5.506198000925551
 40
-4.722601099022051
 40
-4.722601099022051
 40
-3.958917519846438
 40
-3.958917519846438
 40
-3.564895608512362
 40
-3.564895608512362
 40
-3.312178947410438
 40
-3.312178947410438
 40
-3.228907268294406
 40
-3.228907268294406
 40
-3.094053740242875
 40
-3.094053740242875
 40
-2.84759929387713
 40
-2.84759929387713
 40
-2.469712812411403
 40
-2.469712812411403
 40
-1.74896874835653
 40
-1.74896874835653
 40
-0.8744843741782649
 40
-0.8744843741782649
 40
0.0
 40
0.0
 40
0.0
 40
0.0
 10
1.823534943034053
 20
5.438222650340204
 30
0.0
 10
1.821392948637491
 20
5.436986803256932
 30
0.0
 10
1.819252978543392
 20
5.435747492848622
 30
0.0
 10
1.728210142587141
 20
5.382824962877539
 30
0.0
 10
1.641987897661422
 20
5.324759755220549
 30
0.0
 10
1.479445871030443
 20
5.196700143810562
 30
0.0
 10
1.402949128983082
 20
5.126771185308415
 30
0.0
 10
1.268102464680001
 20
4.97495621978671
 30
0.0
 10
1.207553167577521
 20
4.892136595443371
 30
0.0
 10
1.144888199160153
 20
4.753732179363084
 30
0.0
 10
1.128442264794737
 20
4.703282131192684
 30
0.0
 10
1.119436656363323
 20
4.618887428961582
 30
0.0
 10
1.120590900981803
 20
4.584730052416104
 30
0.0
 10
1.131126833927212
 20
4.541914365277569
 30
0.0
 10
1.134487886239216
 20
4.531399879676859
 30
0.0
 10
1.145313512015413
 20
4.504615698677355
 30
0.0
 10
1.15405555928375
 20
4.488852887216934
 30
0.0
 10
1.18344413064314
 20
4.448351588892383
 30
0.0
 10
1.208732949840416
 20
4.426235186586624
 30
0.0
 10
1.278573405244562
 20
4.383391588549557
 30
0.0
 10
1.327530678137271
 20
4.367885773814969
 30
0.0
 10
1.469412072280781
 20
4.34225872464857
 30
0.0
 10
1.566603882115067
 20
4.347458663072692
 30
0.0
 10
1.773485247146463
 20
4.379497754599663
 30
0.0
 10
1.884802735484937
 20
4.411831381640267
 30
0.0
 10
2.100953082755004
 20
4.494470025279317
 30
0.0
 10
2.205851056341913
 20
4.545167116290565
 30
0.0
 10
2.305237628947019
 20
4.602547980737957
 30
0.0
  0
CIRCLE
  5
9C
330
1F
100
AcDbEntity
  8
VISIBLE
100
AcDbCircle
 10
6.904343390387943
 20
5.413918500279662
 30
0.0
 40
0.1082677165354333
  0
LINE
  5
9D
330
1F
100
AcDbEntity
  8
VISIBLE
100
AcDbLine
 10
3.126640017450014
 20
5.583342747623703
 30
0.0
 11
3.097112458394896
 21
5.532199515116748
 31
0.0
  0
CIRCLE
  5
9E
330
1F
100
AcDbEntity
  8
VISIBLE
100
AcDbCircle
 10
6.496509380599655
 20
1.55792297505921
 30
0.0
 40
0.0984251968503935
  0
LINE
  5
9F
330
1F
100
AcDbEntity
  8
VISIBLE
100
AcDbLine
 10
3.110557590321908
 20
5.535802127358721
 30
0.0
 11
3.097112458394896
 21
5.532199515116748
 31
0.0
  0
LINE
  5
A0
330
1F
100
AcDbEntity
  8
VISIBLE
100
AcDbLine
 10
6.969525801574148
 20
6.193055223187852
 30
0.0
 11
7.078631364255652
 21
6.256047349172104
 31
0.0
  0
CIRCLE
  5
A1
330
1F
100
AcDbEntity
  8
VISIBLE
100
AcDbCircle
 10
3.053520983598363
 20
7.521353808535579
 30
0.0
 40
0.1082677165354329
  0
LINE
  5
A2
330
1F
100
AcDbEntity
  8
VISIBLE
100
AcDbLine
 10
4.480686337929071
 20
1.90914908412613
 30
0.0
 11
4.48068633792907
 21
1.763479792787547
 31
0.0
  0
ARC
  5
A3
330
1F
100
AcDbEntity
  8
VISIBLE
100
AcDbCircle
 10
2.806556155168972
 20
3.734238822545974
 30
0.0
 40
1.56626058535136
100
AcDbArc
 50
300.0000000000001
 51
10.49515011669243
  0
LINE
  5
A4
330
1F
100
AcDbEntity
  8
VISIBLE
100
AcDbLine
 10
3.451512473701608
 20
5.338951733657933
 30
0.0
 11
3.110557590321908
 21
5.535802127358721
 31
0.0
  0
LINE
  5
A5
330
1F
100
AcDbEntity
  8
VISIBLE
100
AcDbLine
 10
5.572877198576881
 20
1.53428940135186
 30
0.0
 11
5.568536621713271
 21
1.52543015823674
 31
0.0
  0
LINE
  5
A6
330
1F
100
AcDbEntity
  8
VISIBLE
100
AcDbLine
 10
2.694268384163763
 20
6.196657835429826
 30
0.0
 11
2.68082325223675
 21
6.193055223187853
 31
0.0
  0
LINE
  5
A7
330
1F
100
AcDbEntity
  8
VISIBLE
100
AcDbLine
 10
4.844859566275527
 20
2.993794753417468
 30
0.0
 11
4.854702085960567
 21
3.003637273102508
 31
0.0
  0
LINE
  5
A8
330
1F
100
AcDbEntity
  8
VISIBLE
100
AcDbLine
 10
2.694268384163763
 20
6.196657835429826
 30
0.0
 11
2.568115077313274
 21
6.269492481099117
 31
0.0
  0
LINE
  5
A9
330
1F
100
AcDbEntity
  8
VISIBLE
100
AcDbLine
 10
2.237072020263908
 20
5.676424047426615
 30
0.0
 11
2.571717689555247
 21
6.256047349172105
 31
0.0
  0
CIRCLE
  5
AA
330
1F
100
AcDbEntity
  8
VISIBLE
100
AcDbCircle
 10
5.132689847080854
 20
2.345324549862361
 30
0.0
 40
0.0984251968503944
  0
CIRCLE
  5
AB
330
1F
100
AcDbEntity
  8
VISIBLE
100
AcDbCircle
 10
6.904343390387943
 20
5.413918500279662
 30
0.0
 40
0.0984251968503926
  0
LINE
  5
AC
330
1F
100
AcDbEntity
  8
VISIBLE
100
AcDbLine
 10
5.06139499934639
 20
5.257574280976523
 30
0.0
 11
5.06308395505108
 21
5.247731761291485
 31
0.0
  0
LINE
  5
AD
330
1F
100
AcDbEntity
  8
VISIBLE
100
AcDbLine
 10
4.110393244770501
 20
4.428682644075211
 30
0.0
 11
4.346613717211445
 21
4.019536784019571
 31
0.0
  0
LINE
  5
AE
330
1F
100
AcDbEntity
  8
VISIBLE
100
AcDbLine
 10
2.349780195187385
 20
5.59998678951535
 30
0.0
 11
2.346177582945411
 21
5.613431921442363
 31
0.0
  0
LINE
  5
AF
330
1F
100
AcDbEntity
  8
VISIBLE
100
AcDbLine
 10
6.195233967867317
 20
5.325506601730921
 30
0.0
 11
6.19883658010929
 21
5.338951733657933
 31
0.0
  0
LINE
  5
B0
330
1F
100
AcDbEntity
  8
VISIBLE
100
AcDbLine
 10
5.169662715881827
 20
1.90914908412613
 30
0.0
 11
5.159820196196788
 21
1.89930656444109
 31
0.0
  0
SPLINE
  5
B1
330
1F
100
AcDbEntity
  8
VISIBLE
100
AcDbSpline
210
0.0
220
0.0
230
1.0
 70
     8
 71
     3
 72
    30
 73
    26
 74
     0
 42
0.000000001
 43
0.000001
 12
1.0
 22
0.0
 32
0.0
 13
1.0
 23
0.0
 33
0.0
 40
-6.381791155451006
 40
-6.381791155451006
 40
-6.381791155451006
 40
-6.381791155451006
 40
-5.507306781272739
 40
-5.507306781272739
 40
-4.632822407094472
 40
-4.632822407094472
 40
-3.912078343039598
 40
-3.912078343039598
 40
-3.53419186157387
 40
-3.53419186157387
 40
-3.287737415208127
 40
-3.287737415208127
 40
-3.069612208040564
 40
-3.069612208040564
 40
-2.816895546938642
 40
-2.816895546938642
 40
-2.422873635604568
 40
-2.422873635604568
 40
-1.659190056428957
 40
-1.659190056428957
 40
-0.8755931545254583
 40
-0.8755931545254583
 40
-0.0919962526219598
 40
-0.0919962526219598
 40
-0.0748559391706157
 40
-0.0748559391706157
 40
-0.0748559391706157
 40
-0.0748559391706157
 10
3.589686447844656
 20
2.377817366685412
 30
0.0
 10
3.489872001240043
 20
2.320189469069225
 30
0.0
 10
3.393103857618192
 20
2.254415748754883
 30
0.0
 10
3.212579382442914
 20
2.107827070002039
 30
0.0
 10
3.128452984859891
 20
2.027170418491752
 30
0.0
 10
2.996246047366574
 20
1.862757484195762
 30
0.0
 10
2.942576155390944
 20
1.780481885688028
 30
0.0
 10
2.892973677261432
 20
1.642414321949718
 30
0.0
 10
2.881597653479391
 20
1.591139466645222
 30
0.0
 10
2.883853626072785
 20
1.506512302102776
 30
0.0
 10
2.89059692095357
 20
1.472197284774275
 30
0.0
 10
2.916534939818375
 20
1.414034073455405
 30
0.0
 10
2.934613556975227
 20
1.388765095024212
 30
0.0
 10
2.981017162997429
 20
1.344227577040596
 30
0.0
 10
3.011033656317141
 20
1.325562210628801
 30
0.0
 10
3.090761037368242
 20
1.290216718386154
 30
0.0
 10
3.143642299682078
 20
1.279088785079611
 30
0.0
 10
3.297047961012992
 20
1.26393761824334
 30
0.0
 10
3.399860786410054
 20
1.275124095120078
 30
0.0
 10
3.600128438614683
 20
1.316278513786084
 30
0.0
 10
3.699451223549012
 20
1.347735788754153
 30
0.0
 10
3.892547920723837
 20
1.424839987486776
 30
0.0
 10
3.9863456572092
 20
1.470675944229663
 30
0.0
 10
4.077897912872285
 20
1.523173959337553
 30
0.0
 10
4.079856002682284
 20
1.524300612550564
 30
0.0
 10
4.081812432662881
 20
1.52543015725307
 30
0.0
  0
LINE
  5
B2
330
1F
100
AcDbEntity
  8
VISIBLE
100
AcDbLine
 10
7.426722165474002
 20
5.672821435184639
 30
0.0
 11
7.082233976497625
 21
6.269492481099116
 31
0.0
  0
CIRCLE
  5
B3
330
1F
100
AcDbEntity
  8
VISIBLE
100
AcDbCircle
 10
3.153839673211239
 20
1.557922975059212
 30
0.0
 40
0.0984251968503935
  0
LINE
  5
B4
330
1F
100
AcDbEntity
  8
VISIBLE
100
AcDbLine
 10
7.826814108108143
 20
5.438222645714756
 30
0.0
 11
7.832316149273328
 21
5.446411317102712
 31
0.0
  0
LINE
  5
B5
330
1F
100
AcDbEntity
  8
VISIBLE
100
AcDbLine
 10
5.169662715881827
 20
1.90914908412613
 30
0.0
 11
4.480686337929071
 21
1.90914908412613
 31
0.0
  0
CIRCLE
  5
B6
330
1F
100
AcDbEntity
  8
VISIBLE
100
AcDbCircle
 10
3.053520983598363
 20
5.946550658929279
 30
0.0
 40
0.1082677165354329
  0
ARC
  5
B7
330
1F
100
AcDbEntity
  8
VISIBLE
100
AcDbCircle
 10
6.557059872345681
 20
3.237602652792897
 30
0.0
 40
1.576103105036399
100
AcDbArc
 50
60.00000000000016
 51
130.5567410224892
  0
LINE
  5
B8
330
1F
100
AcDbEntity
  8
VISIBLE
100
AcDbLine
 10
5.169662715881827
 20
1.763479792787547
 30
0.0
 11
5.159820196196788
 21
1.773322312472587
 31
0.0
  0
CIRCLE
  5
B9
330
1F
100
AcDbEntity
  8
VISIBLE
100
AcDbCircle
 10
3.153839673211239
 20
1.557922975059212
 30
0.0
 40
0.1082677165354333
  0
LINE
  5
BA
330
1F
100
AcDbEntity
  8
VISIBLE
100
AcDbLine
 10
4.854702085960567
 20
2.590251446330854
 30
0.0
 11
4.854702085960567
 21
3.003637273102508
 31
0.0
  0
LINE
  5
BB
330
1F
100
AcDbEntity
  8
VISIBLE
100
AcDbLine
 10
5.159820196196788
 20
1.773322312472587
 30
0.0
 11
4.49052885761411
 21
1.773322312472587
 31
0.0
  0
CIRCLE
  5
BC
330
1F
100
AcDbEntity
  8
VISIBLE
100
AcDbCircle
 10
6.596828070212536
 20
7.521353808535579
 30
0.0
 40
0.1082677165354333
  0
LINE
  5
BD
330
1F
100
AcDbEntity
  8
VISIBLE
100
AcDbLine
 10
6.165706408812198
 20
5.376649834237876
 30
0.0
 11
6.195233967867317
 21
5.325506601730921
 31
0.0
  0
ARC
  5
BE
330
1F
100
AcDbEntity
  8
VISIBLE
100
AcDbCircle
 10
6.557059872345681
 20
3.237602652792897
 30
0.0
 40
1.566260585351361
100
AcDbArc
 50
60.00000000000014
 51
130.4951501166924
  0
LINE
  5
BF
330
1F
100
AcDbEntity
  8
VISIBLE
100
AcDbLine
 10
3.130242629691987
 20
5.569897615696691
 30
0.0
 11
3.471197513071687
 21
5.373047221995903
 31
0.0
  0
SPLINE
  5
C0
330
1F
100
AcDbEntity
  8
VISIBLE
100
AcDbSpline
210
0.0
220
0.0
230
1.0
 70
     8
 71
     3
 72
    32
 73
    28
 74
     0
 42
0.000000001
 43
0.000001
 12
1.0
 22
0.0
 32
0.0
 13
1.0
 23
0.0
 33
0.0
 40
-6.457814538873666
 40
-6.457814538873666
 40
-6.457814538873666
 40
-6.457814538873666
 40
-5.583330164695397
 40
-5.583330164695397
 40
-4.708845790517129
 40
-4.708845790517129
 40
-3.988101726462255
 40
-3.988101726462255
 40
-3.610215244996528
 40
-3.610215244996528
 40
-3.363760798630785
 40
-3.363760798630785
 40
-3.228907269436833
 40
-3.228907269436833
 40
-3.145635591463223
 40
-3.145635591463223
 40
-2.892918930361301
 40
-2.892918930361301
 40
-2.498897019027227
 40
-2.498897019027227
 40
-1.735213439851618
 40
-1.735213439851618
 40
-0.9516165379481207
 40
-0.9516165379481207
 40
-0.1680196360446231
 40
-0.1680196360446231
 40
-0.1508794061840047
 40
-0.1508794061840047
 40
-0.1508794061840047
 40
-0.1508794061840047
 10
7.340190165021358
 20
4.594024108653461
 30
0.0
 10
7.440004611625971
 20
4.536396211037276
 30
0.0
 10
7.545350396130529
 20
4.485479400540862
 30
0.0
 10
7.762562153425328
 20
4.40243495841064
 30
0.0
 10
7.874476061408936
 20
4.369907686730016
 30
0.0
 10
8.082965307966665
 20
4.337619587452257
 30
0.0
 10
8.181053012373747
 20
4.332277896836861
 30
0.0
 10
8.325424269074507
 20
4.358354672555198
 30
0.0
 10
8.375517608234592
 20
4.374140174618141
 30
0.0
 10
8.447678896281898
 20
4.418407486465484
 30
0.0
 10
8.47402492557929
 20
4.441404859801704
 30
0.0
 10
8.504722800562046
 20
4.483710549908315
 30
0.0
 10
8.513865856933137
 20
4.500197490129257
 30
0.0
 10
8.52516868221906
 20
4.528162332651434
 30
0.0
 10
8.528672777355018
 20
4.539128309634022
 30
0.0
 10
8.539639822369598
 20
4.583695940294864
 30
0.0
 10
8.5407962571933
 20
4.619023669248159
 30
0.0
 10
8.531542660859147
 20
4.705742352736937
 30
0.0
 10
8.514739102637316
 20
4.757102835938179
 30
0.0
 10
8.451157567349046
 20
4.897531619153238
 30
0.0
 10
8.390063381496415
 20
4.980976899343578
 30
0.0
 10
8.254288783351358
 20
5.13383656437605
 30
0.0
 10
8.177384591628012
 20
5.204123981819763
 30
0.0
 10
8.014062048199706
 20
5.332798527593721
 30
0.0
 10
7.927468077010919
 20
5.391111771836081
 30
0.0
 10
7.836227343972507
 20
5.444149337923426
 30
0.0
 10
7.834272589441534
 20
5.445281768026328
 30
0.0
 10
7.832316151592558
 20
5.446411321097958
 30
0.0
  0
LINE
  5
C1
330
1F
100
AcDbEntity
  8
VISIBLE
100
AcDbLine
 10
4.844859566275527
 20
2.993794753417468
 30
0.0
 11
4.844859566275527
 21
2.600093966015894
 31
0.0
  0
LINE
  5
C2
330
1F
100
AcDbEntity
  8
VISIBLE
100
AcDbLine
 10
6.520106424118912
 20
5.56989761569669
 30
0.0
 11
6.523709036360884
 21
5.583342747623703
 31
0.0
  0
LINE
  5
C3
330
1F
100
AcDbEntity
  8
VISIBLE
100
AcDbLine
 10
4.077471855233998
 20
1.534289401351854
 30
0.0
 11
4.081812432094124
 21
1.525430158234718
 31
0.0
  0
LINE
  5
C4
330
1F
100
AcDbEntity
  8
VISIBLE
100
AcDbLine
 10
4.844859566275527
 20
2.600093966015894
 30
0.0
 11
4.854702085960567
 21
2.590251446330854
 31
0.0
  0
ARC
  5
C5
330
1F
100
AcDbEntity
  8
VISIBLE
100
AcDbCircle
 10
5.111907553201691
 20
6.733952233732433
 30
0.0
 40
1.56626058535136
100
AcDbArc
 50
180.0000000000001
 51
250.4951501166925
  0
LINE
  5
C6
330
1F
100
AcDbEntity
  8
VISIBLE
100
AcDbLine
 10
4.110393244770499
 20
4.428682644075214
 30
0.0
 11
4.118072639002651
 21
4.435066582463855
 31
0.0
  0
LINE
  5
C7
330
1F
100
AcDbEntity
  8
VISIBLE
100
AcDbLine
 10
3.097112458394896
 20
5.532199515116748
 30
0.0
 11
3.455115085943581
 21
5.325506601730921
 31
0.0
  0
ARC
  5
C8
330
1F
100
AcDbEntity
  8
VISIBLE
100
AcDbCircle
 10
4.538441500609213
 20
6.733952233732429
 30
0.0
 40
1.566260585351358
100
AcDbArc
 50
289.5048498833074
 51
359.9999999999999
  0
CIRCLE
  5
C9
330
1F
100
AcDbEntity
  8
VISIBLE
100
AcDbCircle
 10
6.596828070212536
 20
5.946550658929279
 30
0.0
 40
0.1082677165354333
  0
LINE
  5
CA
330
1F
100
AcDbEntity
  8
VISIBLE
100
AcDbLine
 10
7.413277033546991
 20
5.676424047426613
 30
0.0
 11
7.426722165474002
 21
5.672821435184639
 31
0.0
  0
CIRCLE
  5
CB
330
1F
100
AcDbEntity
  8
VISIBLE
100
AcDbCircle
 10
3.053520983598363
 20
7.521353808535579
 30
0.0
 40
0.0984251968503935
  0
LINE
  5
CC
330
1F
100
AcDbEntity
  8
VISIBLE
100
AcDbLine
 10
4.355982067148276
 20
4.022995365315975
 30
0.0
 11
4.118072639002651
 21
4.435066582463856
 31
0.0
  0
LINE
  5
CD
330
1F
100
AcDbEntity
  8
VISIBLE
100
AcDbLine
 10
2.68082325223675
 20
6.193055223187853
 30
0.0
 11
2.346177582945411
 21
5.613431921442363
 31
0.0
  0
SPLINE
  5
CE
330
1F
100
AcDbEntity
  8
VISIBLE
100
AcDbSpline
210
0.0
220
0.0
230
1.0
 70
     8
 71
     3
 72
    30
 73
    26
 74
     0
 42
0.000000001
 43
0.000001
 12
1.0
 22
0.0
 32
0.0
 13
1.0
 23
0.0
 33
0.0
 40
-6.359020424443178
 40
-6.359020424443178
 40
-6.359020424443178
 40
-6.359020424443178
 40
-5.48453605026491
 40
-5.48453605026491
 40
-4.610051676086642
 40
-4.610051676086642
 40
-3.889307612031767
 40
-3.889307612031767
 40
-3.511421130566041
 40
-3.511421130566041
 40
-3.264966684200296
 40
-3.264966684200296
 40
-3.046841477032734
 40
-3.046841477032734
 40
-2.79412481593081
 40
-2.79412481593081
 40
-2.400102904596735
 40
-2.400102904596735
 40
-1.63641932542112
 40
-1.63641932542112
 40
-0.8528224235176178
 40
-0.8528224235176178
 40
-0.0692255216141156
 40
-0.0692255216141156
 40
-0.0520851832970544
 40
-0.0520851832970544
 40
-0.0520851832970544
 40
-0.0520851832970544
 10
3.545646967850331
 20
6.733952233732429
 30
0.0
 10
3.545646967850331
 20
6.849208028964803
 30
0.0
 10
3.537069326967623
 20
6.965898559775557
 30
0.0
 10
3.500382044848103
 20
7.195531680658624
 30
0.0
 10
3.472594534447518
 20
7.308715603849535
 30
0.0
 10
3.396312225383107
 20
7.505416637423284
 30
0.0
 10
3.351894412951655
 20
7.593033926546414
 30
0.0
 10
3.257125634380407
 20
7.705024714566387
 30
0.0
 10
3.218408319002363
 20
7.74051406780794
 30
0.0
 10
3.143991058361663
 20
7.780873920503042
 30
0.0
 10
3.110901734183484
 20
7.792191564495323
 30
0.0
 10
3.047561906183258
 20
7.798810186893996
 30
0.0
 10
3.016639020355737
 20
7.795788134386466
 30
0.0
 10
2.954866595349319
 20
7.777870191735842
 30
0.0
 10
2.923693667205904
 20
7.761207829194343
 30
0.0
 10
2.853219882488955
 20
7.709834637948211
 30
0.0
 10
2.817142178396951
 20
7.669602088053511
 30
0.0
 10
2.727318052354307
 20
7.544324471674724
 30
0.0
 10
2.685599412809878
 20
7.449692714607644
 30
0.0
 10
2.621106358750306
 20
7.255678630909165
 30
0.0
 10
2.598687765539322
 20
7.153933938497381
 30
0.0
 10
2.568913611792804
 20
6.9481551939908
 30
0.0
 10
2.561709846496228
 20
6.844005993005553
 30
0.0
 10
2.561398333386705
 20
6.738470402996356
 30
0.0
 10
2.561394999042926
 20
6.736211320873041
 30
0.0
 10
2.561394998797317
 20
6.733952233732769
 30
0.0
  0
SPLINE
  5
CF
330
1F
100
AcDbEntity
  8
VISIBLE
100
AcDbSpline
210
0.0
220
0.0
230
1.0
 70
     8
 71
     3
 72
    30
 73
    26
 74
     0
 42
0.000000001
 43
0.000001
 12
1.0
 22
0.0
 32
0.0
 13
1.0
 23
0.0
 33
0.0
 40
-6.308638451666959
 40
-6.308638451666959
 40
-6.308638451666959
 40
-6.308638451666959
 40
-6.28979490282904
 40
-6.28979490282904
 40
-5.506198000925544
 40
-5.506198000925544
 40
-4.722601099022047
 40
-4.722601099022047
 40
-3.958917519846436
 40
-3.958917519846436
 40
-3.564895608512362
 40
-3.564895608512362
 40
-3.312178947410439
 40
-3.312178947410439
 40
-3.094053740242876
 40
-3.094053740242876
 40
-2.847599293877133
 40
-2.847599293877133
 40
-2.469712812411405
 40
-2.469712812411405
 40
-1.74896874835653
 40
-1.74896874835653
 40
-0.874484374178265
 40
-0.874484374178265
 40
0.0
 40
0.0
 40
0.0
 40
0.0
 10
5.572877197935924
 20
1.534289400242441
 30
0.0
 10
5.575018457400003
 20
1.533052306700664
 30
0.0
 10
5.577161715916918
 20
1.531818692041078
 30
0.0
 10
5.668515400782528
 20
1.479434541661591
 30
0.0
 10
5.761912468152359
 20
1.433796491013091
 30
0.0
 10
5.954086358147659
 20
1.357060772473051
 30
0.0
 10
6.052894983694387
 20
1.325777129804364
 30
0.0
 10
6.251793932662382
 20
1.284903975663157
 30
0.0
 10
6.353792479826838
 20
1.273876558362787
 30
0.0
 10
6.504986704357002
 20
1.28880931182614
 30
0.0
 10
6.556900694877424
 20
1.299791738961919
 30
0.0
 10
6.634491455170089
 20
1.334190004399331
 30
0.0
 10
6.663495488675863
 20
1.352268297833854
 30
0.0
 10
6.708074979246282
 20
1.395055055872239
 30
0.0
 10
6.725344358519823
 20
1.41920754704643
 30
0.0
 10
6.750176087785825
 20
1.474890023192329
 30
0.0
 10
6.756685044424292
 20
1.507848984201762
 30
0.0
 10
6.758868461011848
 20
1.589754391812161
 30
0.0
 10
6.747818254032023
 20
1.639905541204546
 30
0.0
 10
6.699071232562402
 20
1.775591957440378
 30
0.0
 10
6.645972048871853
 20
1.857162564584596
 30
0.0
 10
6.514784699179624
 20
2.020307536507902
 30
0.0
 10
6.431124212596732
 20
2.100544495774197
 30
0.0
 10
6.251481874235991
 20
2.246416865727378
 30
0.0
 10
6.155127918728825
 20
2.311912630153526
 30
0.0
 10
6.055741346123718
 20
2.369293494600919
 30
0.0
  0
CIRCLE
  5
D0
330
1F
100
AcDbEntity
  8
VISIBLE
100
AcDbCircle
 10
4.517659206730041
 20
2.345324549862361
 30
0.0
 40
0.1082677165354324
  0
LINE
  5
D1
330
1F
100
AcDbEntity
  8
VISIBLE
100
AcDbLine
 10
6.53979146348899
 20
5.53580212735872
 30
0.0
 11
6.19883658010929
 21
5.338951733657933
 31
0.0
  0
LINE
  5
D3
330
1F
100
AcDbEntity
  8
TANGENT EDGES
100
AcDbLine
 10
3.589686447844656
 20
2.377817366685412
 30
0.0
 11
3.594607707687175
 21
2.36929349460092
 31
0.0
  0
LINE
  5
D4
330
1F
100
AcDbEntity
  8
TANGENT EDGES
100
AcDbLine
 10
3.545646967850331
 20
6.733952233732429
 30
0.0
 11
3.535804448165292
 21
6.733952233732429
 31
0.0
  0
LINE
  5
D5
330
1F
100
AcDbEntity
  8
TANGENT EDGES
100
AcDbLine
 10
6.11454460564561
 20
6.733952233732428
 30
0.0
 11
6.104702085960568
 21
6.733952233732428
 31
0.0
  0
LINE
  5
D6
330
1F
100
AcDbEntity
  8
TANGENT EDGES
100
AcDbLine
 10
2.310158888789539
 20
4.594024108653465
 30
0.0
 11
2.305237628947019
 21
4.602547980737957
 31
0.0
  0
LINE
  5
D7
330
1F
100
AcDbEntity
  8
TANGENT EDGES
100
AcDbLine
 10
6.055741346123718
 20
2.369293494600917
 30
0.0
 11
6.060662605966239
 21
2.377817366685411
 31
0.0
  0
LINE
  5
D8
330
1F
100
AcDbEntity
  8
TANGENT EDGES
100
AcDbLine
 10
7.345111424863878
 20
4.602547980737954
 30
0.0
 11
7.340190165021359
 21
4.594024108653461
 31
0.0
  0
ENDSEC
  0
SECTION
  2
OBJECTS
  0
DICTIONARY
  5
C
330
0
100
AcDbDictionary
281
     1
  3
ACAD_GROUP
350
D
  3
ACAD_LAYOUT
350
1A
  3
ACAD_MATERIAL
350
3B
  3
ACAD_MLEADERSTYLE
350
FA
  3
ACAD_MLINESTYLE
350
17
  3
ACAD_PLOTSETTINGS
350
19
  3
ACAD_PLOTSTYLENAME
350
E
  3
ACAD_TABLESTYLE
350
F9
  3
ACAD_VISUALSTYLE
350
2A
  0
DICTIONARY
  5
D
102
{ACAD_REACTORS
330
C
102
}
330
C
100
AcDbDictionary
281
     1
  0
DICTIONARY
  5
1A
102
{ACAD_REACTORS
330
C
102
}
330
C
100
AcDbDictionary
281
     1
  3
Layout1
350
1E
  3
Layout2
350
26
  3
Model
350
22
  0
DICTIONARY
  5
3B
102
{ACAD_REACTORS
330
C
102
}
330
C
100
AcDbDictionary
281
     1
  3
ByBlock
350
3D
  3
ByLayer
350
3C
  3
Global
350
3E
  0
DICTIONARY
  5
FA
102
{ACAD_REACTORS
330
C
102
}
330
C
100
AcDbDictionary
281
     1
  0
DICTIONARY
  5
17
102
{ACAD_REACTORS
330
C
102
}
330
C
100
AcDbDictionary
281
     1
  3
Standard
350
18
  0
DICTIONARY
  5
19
102
{ACAD_REACTORS
330
C
102
}
330
C
100
AcDbDictionary
281
     1
  0
ACDBDICTIONARYWDFLT
  5
E
102
{ACAD_REACTORS
330
C
102
}
330
C
100
AcDbDictionary
281
     1
  3
Normal
350
F
100
AcDbDictionaryWithDefault
340
F
  0
DICTIONARY
  5
F9
102
{ACAD_REACTORS
330
C
102
}
330
C
100
AcDbDictionary
281
     1
  0
DICTIONARY
  5
2A
102
{ACAD_REACTORS
330
C
102
}
330
C
100
AcDbDictionary
281
     1
  3
2dWireframe
350
2F
  3
3D Hidden
350
31
  3
3dWireframe
350
30
  3
Basic
350
32
  3
Brighten
350
36
  3
ColorChange
350
3A
  3
Conceptual
350
34
  3
Dim
350
35
  3
Facepattern
350
39
  3
Flat
350
2B
  3
FlatWithEdges
350
2C
  3
Gouraud
350
2D
  3
GouraudWithEdges
350
2E
  3
Linepattern
350
38
  3
Realistic
350
33
  3
Thicken
350
37
  0
LAYOUT
  5
1E
102
{ACAD_REACTORS
330
1A
102
}
330
1A
100
AcDbPlotSettings
  1

  2
none_device
  4

  6

 40
0.0
 41
0.0
 42
0.0
 43
0.0
 44
0.0
 45
0.0
 46
0.0
 47
0.0
 48
0.0
 49
0.0
140
0.0
141
0.0
142
1.0
143
1.0
 70
   688
 72
     0
 73
     0
 74
     5
  7

 75
    16
 76
     0
 77
     2
 78
   300
147
1.0
148
0.0
149
0.0
100
AcDbLayout
  1
Layout1
 70
     1
 71
     1
 10
0.0
 20
0.0
 11
12.0
 21
9.0
 12
0.0
 22
0.0
 32
0.0
 14
1.000000000000000E+20
 24
1.000000000000000E+20
 34
1.000000000000000E+20
 15
-1.000000000000000E+20
 25
-1.000000000000000E+20
 35
-1.000000000000000E+20
146
0.0
 13
0.0
 23
0.0
 33
0.0
 16
1.0
 26
0.0
 36
0.0
 17
0.0
 27
1.0
 37
0.0
 76
     0
330
1B
  0
LAYOUT
  5
26
102
{ACAD_REACTORS
330
1A
102
}
330
1A
100
AcDbPlotSettings
  1

  2
none_device
  4

  6

 40
0.0
 41
0.0
 42
0.0
 43
0.0
 44
0.0
 45
0.0
 46
0.0
 47
0.0
 48
0.0
 49
0.0
140
0.0
141
0.0
142
1.0
143
1.0
 70
   688
 72
     0
 73
     0
 74
     5
  7

 75
    16
 76
     0
 77
     2
 78
   300
147
1.0
148
0.0
149
0.0
100
AcDbLayout
  1
Layout2
 70
     1
 71
     2
 10
0.0
 20
0.0
 11
0.0
 21
0.0
 12
0.0
 22
0.0
 32
0.0
 14
0.0
 24
0.0
 34
0.0
 15
0.0
 25
0.0
 35
0.0
146
0.0
 13
0.0
 23
0.0
 33
0.0
 16
1.0
 26
0.0
 36
0.0
 17
0.0
 27
1.0
 37
0.0
 76
     0
330
23
  0
LAYOUT
  5
22
102
{ACAD_REACTORS
330
1A
102
}
330
1A
100
AcDbPlotSettings
  1

  2
none_device
  4

  6

 40
0.0
 41
0.0
 42
0.0
 43
0.0
 44
0.0
 45
0.0
 46
0.0
 47
0.0
 48
0.0
 49
0.0
140
0.0
141
0.0
142
1.0
143
1.0
 70
  1712
 72
     0
 73
     0
 74
     0
  7

 75
     0
 76
     0
 77
     2
 78
   300
147
1.0
148
0.0
149
0.0
100
AcDbLayout
  1
Model
 70
     1
 71
     0
 10
0.0
 20
0.0
 11
12.0
 21
9.0
 12
0.0
 22
0.0
 32
0.0
 14
1.000000000000000E+20
 24
1.000000000000000E+20
 34
1.000000000000000E+20
 15
-1.000000000000000E+20
 25
-1.000000000000000E+20
 35
-1.000000000000000E+20
146
0.0
 13
0.0
 23
0.0
 33
0.0
 16
1.0
 26
0.0
 36
0.0
 17
0.0
 27
1.0
 37
0.0
 76
     0
330
1F
331
29
  0
MATERIAL
  5
3D
102
{ACAD_REACTORS
330
3B
102
}
330
3B
100
AcDbMaterial
  1
ByBlock
 72
     1
 94
      127
  0
MATERIAL
  5
3C
102
{ACAD_REACTORS
330
3B
102
}
330
3B
100
AcDbMaterial
  1
ByLayer
 72
     1
 94
      127
  0
MATERIAL
  5
3E
102
{ACAD_REACTORS
330
3B
102
}
330
3B
100
AcDbMaterial
  1
Global
 72
     1
 94
      127
  0
MLINESTYLE
  5
18
102
{ACAD_REACTORS
330
17
102
}
330
17
100
AcDbMlineStyle
  2
Standard
 70
     0
  3

 62
   256
 51
90.0
 52
90.0
 71
     2
 49
0.5
 62
   256
  6
BYLAYER
 49
-0.5
 62
   256
  6
BYLAYER
  0
ACDBPLACEHOLDER
  5
F
102
{ACAD_REACTORS
330
E
102
}
330
E
  0
VISUALSTYLE
  5
2F
102
{ACAD_REACTORS
330
2A
102
}
102
{ACAD_XDICTIONARY
360
E1
102
}
330
2A
100
AcDbVisualStyle
  2
2dWireframe
 70
     4
 71
     0
 72
     2
 73
     0
 90
        0
 40
-0.6
 41
-30.0
 62
     5
 63
     7
421
 16777215
 74
     1
 91
        4
 64
     7
 65
   257
 75
     1
175
     1
 42
1.0
 92
        0
 66
   257
 43
1.0
 76
     1
 77
     6
 78
     2
 67
     7
 79
     5
170
     0
171
     0
290
     0
174
     0
 93
        1
 44
0.0
173
     0
291
     0
 45
0.0
  0
VISUALSTYLE
  5
31
102
{ACAD_REACTORS
330
2A
102
}
102
{ACAD_XDICTIONARY
360
E5
102
}
330
2A
100
AcDbVisualStyle
  2
3D Hidden
 70
     6
 71
     1
 72
     2
 73
     2
 90
        0
 40
-0.6
 41
-30.0
 62
     5
 63
     7
421
 16777215
 74
     2
 91
        2
 64
     7
 65
   257
 75
     2
175
     1
 42
40.0
 92
        0
 66
   257
 43
1.0
 76
     1
 77
     6
 78
     2
 67
     7
 79
     3
170
     0
171
     0
290
     0
174
     0
 93
        1
 44
0.0
173
     0
291
     0
 45
0.0
  0
VISUALSTYLE
  5
30
102
{ACAD_REACTORS
330
2A
102
}
102
{ACAD_XDICTIONARY
360
E3
102
}
330
2A
100
AcDbVisualStyle
  2
3dWireframe
 70
     5
 71
     0
 72
     2
 73
     0
 90
        0
 40
-0.6
 41
-30.0
 62
     5
 63
     7
421
 16777215
 74
     1
 91
        4
 64
     7
 65
   257
 75
     1
175
     1
 42
1.0
 92
        0
 66
   257
 43
1.0
 76
     1
 77
     6
 78
     2
 67
     7
 79
     5
170
     0
171
     0
290
     0
174
     0
 93
        1
 44
0.0
173
     0
291
     0
 45
0.0
  0
VISUALSTYLE
  5
32
102
{ACAD_REACTORS
330
2A
102
}
102
{ACAD_XDICTIONARY
360
E7
102
}
330
2A
100
AcDbVisualStyle
  2
Basic
 70
     7
 71
     1
 72
     0
 73
     1
 90
        0
 40
-0.6
 41
-30.0
 62
     5
 63
     7
421
 16777215
 74
     0
 91
        4
 64
     7
 65
   257
 75
     1
175
     1
 42
1.0
 92
        8
 66
     7
 43
1.0
 76
     1
 77
     6
 78
     2
 67
     7
 79
     5
170
     0
171
     0
290
     0
174
     0
 93
        1
 44
0.0
173
     0
291
     1
 45
0.0
  0
VISUALSTYLE
  5
36
102
{ACAD_REACTORS
330
2A
102
}
102
{ACAD_XDICTIONARY
360
EF
102
}
330
2A
100
AcDbVisualStyle
  2
Brighten
 70
    12
 71
     2
 72
     2
 73
     0
 90
        0
 40
-0.6
 41
-30.0
 62
     5
 63
     7
421
 16777215
 74
     1
 91
        4
 64
     7
 65
   257
 75
     1
175
     1
 42
1.0
 92
        8
 66
     7
 43
1.0
 76
     1
 77
     6
 78
     2
 67
     7
 79
     5
170
     0
171
     0
290
     0
174
     0
 93
        1
 44
50.0
173
     0
291
     1
 45
0.0
  0
VISUALSTYLE
  5
3A
102
{ACAD_REACTORS
330
2A
102
}
102
{ACAD_XDICTIONARY
360
F7
102
}
330
2A
100
AcDbVisualStyle
  2
ColorChange
 70
    16
 71
     2
 72
     2
 73
     3
 90
        0
 40
-0.6
 41
-30.0
 62
     5
 63
     8
421
  8421504
 74
     1
 91
        4
 64
     7
 65
   257
 75
     1
175
     1
 42
1.0
 92
        8
 66
     8
424
  8421504
 43
1.0
 76
     1
 77
     6
 78
     2
 67
     7
 79
     5
170
     0
171
     0
290
     0
174
     0
 93
        1
 44
0.0
173
     0
291
     1
 45
0.0
  0
VISUALSTYLE
  5
34
102
{ACAD_REACTORS
330
2A
102
}
102
{ACAD_XDICTIONARY
360
EB
102
}
330
2A
100
AcDbVisualStyle
  2
Conceptual
 70
     9
 71
     3
 72
     2
 73
     0
 90
        0
 40
-0.6
 41
-30.0
 62
     5
 63
     7
421
 16777215
 74
     2
 91
        2
 64
     7
 65
   257
 75
     1
175
     1
 42
40.0
 92
        8
 66
     7
 43
1.0
 76
     1
 77
     6
 78
     2
 67
     7
 79
     3
170
     0
171
     0
290
     0
174
     0
 93
        1
 44
0.0
173
     0
291
     0
 45
0.0
  0
VISUALSTYLE
  5
35
102
{ACAD_REACTORS
330
2A
102
}
102
{ACAD_XDICTIONARY
360
ED
102
}
330
2A
100
AcDbVisualStyle
  2
Dim
 70
    11
 71
     2
 72
     2
 73
     0
 90
        0
 40
-0.6
 41
-30.0
 62
     5
 63
     7
421
 16777215
 74
     1
 91
        4
 64
     7
 65
   257
 75
     1
175
     1
 42
1.0
 92
        8
 66
     7
 43
1.0
 76
     1
 77
     6
 78
     2
 67
     7
 79
     5
170
     0
171
     0
290
     0
174
     0
 93
        1
 44
-50.0
173
     0
291
     1
 45
0.0
  0
VISUALSTYLE
  5
39
102
{ACAD_REACTORS
330
2A
102
}
102
{ACAD_XDICTIONARY
360
F5
102
}
330
2A
100
AcDbVisualStyle
  2
Facepattern
 70
    15
 71
     2
 72
     2
 73
     0
 90
        0
 40
-0.6
 41
-30.0
 62
     5
 63
     7
421
 16777215
 74
     1
 91
        4
 64
     7
 65
   257
 75
     1
175
     1
 42
1.0
 92
        8
 66
     7
 43
1.0
 76
     1
 77
     6
 78
     2
 67
     7
 79
     5
170
     0
171
     0
290
     0
174
     0
 93
        1
 44
0.0
173
     0
291
     1
 45
0.0
  0
VISUALSTYLE
  5
2B
102
{ACAD_REACTORS
330
2A
102
}
102
{ACAD_XDICTIONARY
360
D9
102
}
330
2A
100
AcDbVisualStyle
  2
Flat
 70
     0
 71
     2
 72
     1
 73
     1
 90
        2
 40
-0.6
 41
30.0
 62
     5
 63
     7
421
 16777215
 74
     0
 91
        4
 64
     7
 65
   257
 75
     1
175
     1
 42
1.0
 92
        8
 66
     7
 43
1.0
 76
     1
 77
     6
 78
     2
 67
     7
 79
     5
170
     0
171
     0
290
     0
174
     0
 93
       13
 44
0.0
173
     0
291
     1
 45
0.0
  0
VISUALSTYLE
  5
2C
102
{ACAD_REACTORS
330
2A
102
}
102
{ACAD_XDICTIONARY
360
DB
102
}
330
2A
100
AcDbVisualStyle
  2
FlatWithEdges
 70
     1
 71
     2
 72
     1
 73
     1
 90
        2
 40
-0.6
 41
30.0
 62
     5
 63
     7
421
 16777215
 74
     1
 91
        4
 64
     7
 65
   257
 75
     1
175
     1
 42
1.0
 92
        0
 66
   257
 43
1.0
 76
     1
 77
     6
 78
     2
 67
     7
 79
     5
170
     0
171
     0
290
     0
174
     0
 93
       13
 44
0.0
173
     0
291
     1
 45
0.0
  0
VISUALSTYLE
  5
2D
102
{ACAD_REACTORS
330
2A
102
}
102
{ACAD_XDICTIONARY
360
DD
102
}
330
2A
100
AcDbVisualStyle
  2
Gouraud
 70
     2
 71
     2
 72
     2
 73
     1
 90
        2
 40
-0.6
 41
30.0
 62
     5
 63
     7
421
 16777215
 74
     0
 91
        4
 64
     7
 65
   257
 75
     1
175
     1
 42
1.0
 92
        0
 66
     7
 43
1.0
 76
     1
 77
     6
 78
     2
 67
     7
 79
     5
170
     0
171
     0
290
     0
174
     0
 93
       13
 44
0.0
173
     0
291
     1
 45
0.0
  0
VISUALSTYLE
  5
2E
102
{ACAD_REACTORS
330
2A
102
}
102
{ACAD_XDICTIONARY
360
DF
102
}
330
2A
100
AcDbVisualStyle
  2
GouraudWithEdges
 70
     3
 71
     2
 72
     2
 73
     1
 90
        2
 40
-0.6
 41
30.0
 62
     5
 63
     7
421
 16777215
 74
     1
 91
        4
 64
     7
 65
   257
 75
     1
175
     1
 42
1.0
 92
        0
 66
   257
 43
1.0
 76
     1
 77
     6
 78
     2
 67
     7
 79
     5
170
     0
171
     0
290
     0
174
     0
 93
       13
 44
0.0
173
     0
291
     1
 45
0.0
  0
VISUALSTYLE
  5
38
102
{ACAD_REACTORS
330
2A
102
}
102
{ACAD_XDICTIONARY
360
F3
102
}
330
2A
100
AcDbVisualStyle
  2
Linepattern
 70
    14
 71
     2
 72
     2
 73
     0
 90
        0
 40
-0.6
 41
-30.0
 62
     5
 63
     7
421
 16777215
 74
     1
 91
        4
 64
     7
 65
   257
 75
     7
175
     7
 42
1.0
 92
        8
 66
     7
 43
1.0
 76
     1
 77
     6
 78
     2
 67
     7
 79
     5
170
     0
171
     0
290
     0
174
     0
 93
        1
 44
0.0
173
     0
291
     1
 45
0.0
  0
VISUALSTYLE
  5
33
102
{ACAD_REACTORS
330
2A
102
}
102
{ACAD_XDICTIONARY
360
E9
102
}
330
2A
100
AcDbVisualStyle
  2
Realistic
 70
     8
 71
     2
 72
     2
 73
     0
 90
        0
 40
-0.6
 41
-30.0
 62
     5
 63
     7
421
 16777215
 74
     1
 91
        0
 64
     7
 65
   257
 75
     1
175
     1
 42
1.0
 92
        8
 66
     8
424
  7895160
 43
1.0
 76
     1
 77
     6
 78
     2
 67
     7
 79
     5
170
     0
171
     0
290
     0
174
     0
 93
       13
 44
0.0
173
     0
291
     0
 45
0.0
  0
VISUALSTYLE
  5
37
102
{ACAD_REACTORS
330
2A
102
}
102
{ACAD_XDICTIONARY
360
F1
102
}
330
2A
100
AcDbVisualStyle
  2
Thicken
 70
    13
 71
     2
 72
     2
 73
     0
 90
        0
 40
-0.6
 41
-30.0
 62
     5
 63
     7
421
 16777215
 74
     1
 91
        4
 64
     7
 65
   257
 75
     1
175
     1
 42
1.0
 92
       12
 66
     7
 43
1.0
 76
     1
 77
     6
 78
     2
 67
     7
 79
     5
170
     0
171
     0
290
     0
174
     0
 93
        1
 44
0.0
173
     0
291
     1
 45
0.0
  0
DICTIONARY
  5
E1
330
2F
100
AcDbDictionary
280
     1
281
     1
  3
ACAD_XREC_ROUNDTRIP
360
E2
  0
DICTIONARY
  5
E5
330
31
100
AcDbDictionary
280
     1
281
     1
  3
ACAD_XREC_ROUNDTRIP
360
E6
  0
DICTIONARY
  5
E3
330
30
100
AcDbDictionary
280
     1
281
     1
  3
ACAD_XREC_ROUNDTRIP
360
E4
  0
DICTIONARY
  5
E7
330
32
100
AcDbDictionary
280
     1
281
     1
  3
ACAD_XREC_ROUNDTRIP
360
E8
  0
DICTIONARY
  5
EF
330
36
100
AcDbDictionary
280
     1
281
     1
  3
ACAD_XREC_ROUNDTRIP
360
F0
  0
DICTIONARY
  5
F7
330
3A
100
AcDbDictionary
280
     1
281
     1
  3
ACAD_XREC_ROUNDTRIP
360
F8
  0
DICTIONARY
  5
EB
330
34
100
AcDbDictionary
280
     1
281
     1
  3
ACAD_XREC_ROUNDTRIP
360
EC
  0
DICTIONARY
  5
ED
330
35
100
AcDbDictionary
280
     1
281
     1
  3
ACAD_XREC_ROUNDTRIP
360
EE
  0
DICTIONARY
  5
F5
330
39
100
AcDbDictionary
280
     1
281
     1
  3
ACAD_XREC_ROUNDTRIP
360
F6
  0
DICTIONARY
  5
D9
330
2B
100
AcDbDictionary
280
     1
281
     1
  3
ACAD_XREC_ROUNDTRIP
360
DA
  0
DICTIONARY
  5
DB
330
2C
100
AcDbDictionary
280
     1
281
     1
  3
ACAD_XREC_ROUNDTRIP
360
DC
  0
DICTIONARY
  5
DD
330
2D
100
AcDbDictionary
280
     1
281
     1
  3
ACAD_XREC_ROUNDTRIP
360
DE
  0
DICTIONARY
  5
DF
330
2E
100
AcDbDictionary
280
     1
281
     1
  3
ACAD_XREC_ROUNDTRIP
360
E0
  0
DICTIONARY
  5
F3
330
38
100
AcDbDictionary
280
     1
281
     1
  3
ACAD_XREC_ROUNDTRIP
360
F4
  0
DICTIONARY
  5
E9
330
33
100
AcDbDictionary
280
     1
281
     1
  3
ACAD_XREC_ROUNDTRIP
360
EA
  0
DICTIONARY
  5
F1
330
37
100
AcDbDictionary
280
     1
281
     1
  3
ACAD_XREC_ROUNDTRIP
360
F2
  0
XRECORD
  5
E2
102
{ACAD_REACTORS
330
E1
102
}
330
E1
100
AcDbXrecord
280
     1
102
RTVSPropertyOp0
 70
     1
102
RTVSPropertyOp1
 70
     1
102
RTVSPropertyOp2
 70
     1
102
RTVSPropertyOp3
 70
     1
102
RTVSPropertyOp4
 70
     1
102
RTVSPropertyOp5
 70
     1
102
RTVSPropertyOp6
 70
     1
102
RTVSPropertyOp7
 70
     1
102
RTVSPropertyOp8
 70
     1
102
RTVSPropertyOp9
 70
     1
102
RTVSPropertyOp10
 70
     1
102
RTVSPropertyOp11
 70
     1
102
RTVSPropertyOp12
 70
     1
102
RTVSPropertyOp13
 70
     1
102
RTVSPropertyOp14
 70
     1
102
RTVSPropertyOp15
 70
     1
102
RTVSPropertyOp16
 70
     1
102
RTVSPropertyOp17
 70
     1
102
RTVSPropertyOp18
 70
     1
102
RTVSPropertyOp19
 70
     1
102
RTVSPropertyOp20
 70
     1
102
RTVSPropertyOp21
 70
     1
102
RTVSPropertyOp22
 70
     1
102
RTVSPropertyOp23
 70
     1
102
RTVSPropertyOp24
 70
     1
102
RTVSPropertyOp25
 70
     1
102
RTVSPropertyOp26
 70
     1
102
RTVSPropertyOp27
 70
     1
  0
XRECORD
  5
E6
102
{ACAD_REACTORS
330
E5
102
}
330
E5
100
AcDbXrecord
280
     1
102
RTVSPropertyOp0
 70
     1
102
RTVSPropertyOp1
 70
     1
102
RTVSPropertyOp2
 70
     1
102
RTVSPropertyOp3
 70
     1
102
RTVSPropertyOp4
 70
     1
102
RTVSPropertyOp5
 70
     1
102
RTVSPropertyOp6
 70
     1
102
RTVSPropertyOp7
 70
     1
102
RTVSPropertyOp8
 70
     1
102
RTVSPropertyOp9
 70
     1
102
RTVSPropertyOp10
 70
     1
102
RTVSPropertyOp11
 70
     1
102
RTVSPropertyOp12
 70
     1
102
RTVSPropertyOp13
 70
     1
102
RTVSPropertyOp14
 70
     1
102
RTVSPropertyOp15
 70
     1
102
RTVSPropertyOp16
 70
     1
102
RTVSPropertyOp17
 70
     1
102
RTVSPropertyOp18
 70
     1
102
RTVSPropertyOp19
 70
     1
102
RTVSPropertyOp20
 70
     1
102
RTVSPropertyOp21
 70
     1
102
RTVSPropertyOp22
 70
     1
102
RTVSPropertyOp23
 70
     1
102
RTVSPropertyOp24
 70
     1
102
RTVSPropertyOp25
 70
     1
102
RTVSPropertyOp26
 70
     1
102
RTVSPropertyOp27
 70
     1
  0
XRECORD
  5
E4
102
{ACAD_REACTORS
330
E3
102
}
330
E3
100
AcDbXrecord
280
     1
102
RTVSPropertyOp0
 70
     1
102
RTVSPropertyOp1
 70
     1
102
RTVSPropertyOp2
 70
     1
102
RTVSPropertyOp3
 70
     1
102
RTVSPropertyOp4
 70
     1
102
RTVSPropertyOp5
 70
     1
102
RTVSPropertyOp6
 70
     1
102
RTVSPropertyOp7
 70
     1
102
RTVSPropertyOp8
 70
     1
102
RTVSPropertyOp9
 70
     1
102
RTVSPropertyOp10
 70
     1
102
RTVSPropertyOp11
 70
     1
102
RTVSPropertyOp12
 70
     1
102
RTVSPropertyOp13
 70
     1
102
RTVSPropertyOp14
 70
     1
102
RTVSPropertyOp15
 70
     1
102
RTVSPropertyOp16
 70
     1
102
RTVSPropertyOp17
 70
     1
102
RTVSPropertyOp18
 70
     1
102
RTVSPropertyOp19
 70
     1
102
RTVSPropertyOp20
 70
     1
102
RTVSPropertyOp21
 70
     1
102
RTVSPropertyOp22
 70
     1
102
RTVSPropertyOp23
 70
     1
102
RTVSPropertyOp24
 70
     1
102
RTVSPropertyOp25
 70
     1
102
RTVSPropertyOp26
 70
     1
102
RTVSPropertyOp27
 70
     1
  0
XRECORD
  5
E8
102
{ACAD_REACTORS
330
E7
102
}
330
E7
100
AcDbXrecord
280
     1
102
RTVSPropertyOp0
 70
     1
102
RTVSPropertyOp1
 70
     1
102
RTVSPropertyOp2
 70
     1
102
RTVSPropertyOp3
 70
     1
102
RTVSPropertyOp4
 70
     1
102
RTVSPropertyOp5
 70
     1
102
RTVSPropertyOp6
 70
     1
102
RTVSPropertyOp7
 70
     1
102
RTVSPropertyOp8
 70
     1
102
RTVSPropertyOp9
 70
     1
102
RTVSPropertyOp10
 70
     1
102
RTVSPropertyOp11
 70
     1
102
RTVSPropertyOp12
 70
     1
102
RTVSPropertyOp13
 70
     1
102
RTVSPropertyOp14
 70
     1
102
RTVSPropertyOp15
 70
     1
102
RTVSPropertyOp16
 70
     1
102
RTVSPropertyOp17
 70
     1
102
RTVSPropertyOp18
 70
     1
102
RTVSPropertyOp19
 70
     1
102
RTVSPropertyOp20
 70
     1
102
RTVSPropertyOp21
 70
     1
102
RTVSPropertyOp22
 70
     1
102
RTVSPropertyOp23
 70
     1
102
RTVSPropertyOp24
 70
     1
102
RTVSPropertyOp25
 70
     1
102
RTVSPropertyOp26
 70
     1
102
RTVSPropertyOp27
 70
     1
  0
XRECORD
  5
F0
102
{ACAD_REACTORS
330
EF
102
}
330
EF
100
AcDbXrecord
280
     1
102
RTVSPropertyOp0
 70
     1
102
RTVSPropertyOp1
 70
     1
102
RTVSPropertyOp2
 70
     1
102
RTVSPropertyOp3
 70
     1
102
RTVSPropertyOp4
 70
     1
102
RTVSPropertyOp5
 70
     1
102
RTVSPropertyOp6
 70
     1
102
RTVSPropertyOp7
 70
     1
102
RTVSPropertyOp8
 70
     1
102
RTVSPropertyOp9
 70
     1
102
RTVSPropertyOp10
 70
     1
102
RTVSPropertyOp11
 70
     1
102
RTVSPropertyOp12
 70
     1
102
RTVSPropertyOp13
 70
     1
102
RTVSPropertyOp14
 70
     1
102
RTVSPropertyOp15
 70
     1
102
RTVSPropertyOp16
 70
     1
102
RTVSPropertyOp17
 70
     1
102
RTVSPropertyOp18
 70
     1
102
RTVSPropertyOp19
 70
     1
102
RTVSPropertyOp20
 70
     1
102
RTVSPropertyOp21
 70
     1
102
RTVSPropertyOp22
 70
     1
102
RTVSPropertyOp23
 70
     1
102
RTVSPropertyOp24
 70
     1
102
RTVSPropertyOp25
 70
     1
102
RTVSPropertyOp26
 70
     1
102
RTVSPropertyOp27
 70
     1
  0
XRECORD
  5
F8
102
{ACAD_REACTORS
330
F7
102
}
330
F7
100
AcDbXrecord
280
     1
102
RTVSPropertyOp0
 70
     1
102
RTVSPropertyOp1
 70
     1
102
RTVSPropertyOp2
 70
     1
102
RTVSPropertyOp3
 70
     1
102
RTVSPropertyOp4
 70
     1
102
RTVSPropertyOp5
 70
     1
102
RTVSPropertyOp6
 70
     1
102
RTVSPropertyOp7
 70
     1
102
RTVSPropertyOp8
 70
     1
102
RTVSPropertyOp9
 70
     1
102
RTVSPropertyOp10
 70
     1
102
RTVSPropertyOp11
 70
     1
102
RTVSPropertyOp12
 70
     1
102
RTVSPropertyOp13
 70
     1
102
RTVSPropertyOp14
 70
     1
102
RTVSPropertyOp15
 70
     1
102
RTVSPropertyOp16
 70
     1
102
RTVSPropertyOp17
 70
     1
102
RTVSPropertyOp18
 70
     1
102
RTVSPropertyOp19
 70
     1
102
RTVSPropertyOp20
 70
     1
102
RTVSPropertyOp21
 70
     1
102
RTVSPropertyOp22
 70
     1
102
RTVSPropertyOp23
 70
     1
102
RTVSPropertyOp24
 70
     1
102
RTVSPropertyOp25
 70
     1
102
RTVSPropertyOp26
 70
     1
102
RTVSPropertyOp27
 70
     1
  0
XRECORD
  5
EC
102
{ACAD_REACTORS
330
EB
102
}
330
EB
100
AcDbXrecord
280
     1
102
RTVSPropertyOp0
 70
     1
102
RTVSPropertyOp1
 70
     1
102
RTVSPropertyOp2
 70
     1
102
RTVSPropertyOp3
 70
     1
102
RTVSPropertyOp4
 70
     1
102
RTVSPropertyOp5
 70
     1
102
RTVSPropertyOp6
 70
     1
102
RTVSPropertyOp7
 70
     1
102
RTVSPropertyOp8
 70
     1
102
RTVSPropertyOp9
 70
     1
102
RTVSPropertyOp10
 70
     1
102
RTVSPropertyOp11
 70
     1
102
RTVSPropertyOp12
 70
     1
102
RTVSPropertyOp13
 70
     1
102
RTVSPropertyOp14
 70
     1
102
RTVSPropertyOp15
 70
     1
102
RTVSPropertyOp16
 70
     1
102
RTVSPropertyOp17
 70
     1
102
RTVSPropertyOp18
 70
     1
102
RTVSPropertyOp19
 70
     1
102
RTVSPropertyOp20
 70
     1
102
RTVSPropertyOp21
 70
     1
102
RTVSPropertyOp22
 70
     1
102
RTVSPropertyOp23
 70
     1
102
RTVSPropertyOp24
 70
     1
102
RTVSPropertyOp25
 70
     1
102
RTVSPropertyOp26
 70
     1
102
RTVSPropertyOp27
 70
     1
  0
XRECORD
  5
EE
102
{ACAD_REACTORS
330
ED
102
}
330
ED
100
AcDbXrecord
280
     1
102
RTVSPropertyOp0
 70
     1
102
RTVSPropertyOp1
 70
     1
102
RTVSPropertyOp2
 70
     1
102
RTVSPropertyOp3
 70
     1
102
RTVSPropertyOp4
 70
     1
102
RTVSPropertyOp5
 70
     1
102
RTVSPropertyOp6
 70
     1
102
RTVSPropertyOp7
 70
     1
102
RTVSPropertyOp8
 70
     1
102
RTVSPropertyOp9
 70
     1
102
RTVSPropertyOp10
 70
     1
102
RTVSPropertyOp11
 70
     1
102
RTVSPropertyOp12
 70
     1
102
RTVSPropertyOp13
 70
     1
102
RTVSPropertyOp14
 70
     1
102
RTVSPropertyOp15
 70
     1
102
RTVSPropertyOp16
 70
     1
102
RTVSPropertyOp17
 70
     1
102
RTVSPropertyOp18
 70
     1
102
RTVSPropertyOp19
 70
     1
102
RTVSPropertyOp20
 70
     1
102
RTVSPropertyOp21
 70
     1
102
RTVSPropertyOp22
 70
     1
102
RTVSPropertyOp23
 70
     1
102
RTVSPropertyOp24
 70
     1
102
RTVSPropertyOp25
 70
     1
102
RTVSPropertyOp26
 70
     1
102
RTVSPropertyOp27
 70
     1
  0
XRECORD
  5
F6
102
{ACAD_REACTORS
330
F5
102
}
330
F5
100
AcDbXrecord
280
     1
102
RTVSPropertyOp0
 70
     1
102
RTVSPropertyOp1
 70
     1
102
RTVSPropertyOp2
 70
     1
102
RTVSPropertyOp3
 70
     1
102
RTVSPropertyOp4
 70
     1
102
RTVSPropertyOp5
 70
     1
102
RTVSPropertyOp6
 70
     1
102
RTVSPropertyOp7
 70
     1
102
RTVSPropertyOp8
 70
     1
102
RTVSPropertyOp9
 70
     1
102
RTVSPropertyOp10
 70
     1
102
RTVSPropertyOp11
 70
     1
102
RTVSPropertyOp12
 70
     1
102
RTVSPropertyOp13
 70
     1
102
RTVSPropertyOp14
 70
     1
102
RTVSPropertyOp15
 70
     1
102
RTVSPropertyOp16
 70
     1
102
RTVSPropertyOp17
 70
     1
102
RTVSPropertyOp18
 70
     1
102
RTVSPropertyOp19
 70
     1
102
RTVSPropertyOp20
 70
     1
102
RTVSPropertyOp21
 70
     1
102
RTVSPropertyOp22
 70
     1
102
RTVSPropertyOp23
 70
     1
102
RTVSPropertyOp24
 70
     1
102
RTVSPropertyOp25
 70
     1
102
RTVSPropertyOp26
 70
     1
102
RTVSPropertyOp27
 70
     1
  0
XRECORD
  5
DA
102
{ACAD_REACTORS
330
D9
102
}
330
D9
100
AcDbXrecord
280
     1
102
RTVSPropertyOp0
 70
     1
102
RTVSPropertyOp1
 70
     1
102
RTVSPropertyOp2
 70
     1
102
RTVSPropertyOp3
 70
     1
102
RTVSPropertyOp4
 70
     1
102
RTVSPropertyOp5
 70
     1
102
RTVSPropertyOp6
 70
     1
102
RTVSPropertyOp7
 70
     1
102
RTVSPropertyOp8
 70
     1
102
RTVSPropertyOp9
 70
     1
102
RTVSPropertyOp10
 70
     1
102
RTVSPropertyOp11
 70
     1
102
RTVSPropertyOp12
 70
     1
102
RTVSPropertyOp13
 70
     1
102
RTVSPropertyOp14
 70
     1
102
RTVSPropertyOp15
 70
     1
102
RTVSPropertyOp16
 70
     1
102
RTVSPropertyOp17
 70
     1
102
RTVSPropertyOp18
 70
     1
102
RTVSPropertyOp19
 70
     1
102
RTVSPropertyOp20
 70
     1
102
RTVSPropertyOp21
 70
     1
102
RTVSPropertyOp22
 70
     1
102
RTVSPropertyOp23
 70
     1
102
RTVSPropertyOp24
 70
     1
102
RTVSPropertyOp25
 70
     1
102
RTVSPropertyOp26
 70
     1
102
RTVSPropertyOp27
 70
     1
  0
XRECORD
  5
DC
102
{ACAD_REACTORS
330
DB
102
}
330
DB
100
AcDbXrecord
280
     1
102
RTVSPropertyOp0
 70
     1
102
RTVSPropertyOp1
 70
     1
102
RTVSPropertyOp2
 70
     1
102
RTVSPropertyOp3
 70
     1
102
RTVSPropertyOp4
 70
     1
102
RTVSPropertyOp5
 70
     1
102
RTVSPropertyOp6
 70
     1
102
RTVSPropertyOp7
 70
     1
102
RTVSPropertyOp8
 70
     1
102
RTVSPropertyOp9
 70
     1
102
RTVSPropertyOp10
 70
     1
102
RTVSPropertyOp11
 70
     1
102
RTVSPropertyOp12
 70
     1
102
RTVSPropertyOp13
 70
     1
102
RTVSPropertyOp14
 70
     1
102
RTVSPropertyOp15
 70
     1
102
RTVSPropertyOp16
 70
     1
102
RTVSPropertyOp17
 70
     1
102
RTVSPropertyOp18
 70
     1
102
RTVSPropertyOp19
 70
     1
102
RTVSPropertyOp20
 70
     1
102
RTVSPropertyOp21
 70
     1
102
RTVSPropertyOp22
 70
     1
102
RTVSPropertyOp23
 70
     1
102
RTVSPropertyOp24
 70
     1
102
RTVSPropertyOp25
 70
     1
102
RTVSPropertyOp26
 70
     1
102
RTVSPropertyOp27
 70
     1
  0
XRECORD
  5
DE
102
{ACAD_REACTORS
330
DD
102
}
330
DD
100
AcDbXrecord
280
     1
102
RTVSPropertyOp0
 70
     1
102
RTVSPropertyOp1
 70
     1
102
RTVSPropertyOp2
 70
     1
102
RTVSPropertyOp3
 70
     1
102
RTVSPropertyOp4
 70
     1
102
RTVSPropertyOp5
 70
     1
102
RTVSPropertyOp6
 70
     1
102
RTVSPropertyOp7
 70
     1
102
RTVSPropertyOp8
 70
     1
102
RTVSPropertyOp9
 70
     1
102
RTVSPropertyOp10
 70
     1
102
RTVSPropertyOp11
 70
     1
102
RTVSPropertyOp12
 70
     1
102
RTVSPropertyOp13
 70
     1
102
RTVSPropertyOp14
 70
     1
102
RTVSPropertyOp15
 70
     1
102
RTVSPropertyOp16
 70
     1
102
RTVSPropertyOp17
 70
     1
102
RTVSPropertyOp18
 70
     1
102
RTVSPropertyOp19
 70
     1
102
RTVSPropertyOp20
 70
     1
102
RTVSPropertyOp21
 70
     1
102
RTVSPropertyOp22
 70
     1
102
RTVSPropertyOp23
 70
     1
102
RTVSPropertyOp24
 70
     1
102
RTVSPropertyOp25
 70
     1
102
RTVSPropertyOp26
 70
     1
102
RTVSPropertyOp27
 70
     1
  0
XRECORD
  5
E0
102
{ACAD_REACTORS
330
DF
102
}
330
DF
100
AcDbXrecord
280
     1
102
RTVSPropertyOp0
 70
     1
102
RTVSPropertyOp1
 70
     1
102
RTVSPropertyOp2
 70
     1
102
RTVSPropertyOp3
 70
     1
102
RTVSPropertyOp4
 70
     1
102
RTVSPropertyOp5
 70
     1
102
RTVSPropertyOp6
 70
     1
102
RTVSPropertyOp7
 70
     1
102
RTVSPropertyOp8
 70
     1
102
RTVSPropertyOp9
 70
     1
102
RTVSPropertyOp10
 70
     1
102
RTVSPropertyOp11
 70
     1
102
RTVSPropertyOp12
 70
     1
102
RTVSPropertyOp13
 70
     1
102
RTVSPropertyOp14
 70
     1
102
RTVSPropertyOp15
 70
     1
102
RTVSPropertyOp16
 70
     1
102
RTVSPropertyOp17
 70
     1
102
RTVSPropertyOp18
 70
     1
102
RTVSPropertyOp19
 70
     1
102
RTVSPropertyOp20
 70
     1
102
RTVSPropertyOp21
 70
     1
102
RTVSPropertyOp22
 70
     1
102
RTVSPropertyOp23
 70
     1
102
RTVSPropertyOp24
 70
     1
102
RTVSPropertyOp25
 70
     1
102
RTVSPropertyOp26
 70
     1
102
RTVSPropertyOp27
 70
     1
  0
XRECORD
  5
F4
102
{ACAD_REACTORS
330
F3
102
}
330
F3
100
AcDbXrecord
280
     1
102
RTVSPropertyOp0
 70
     1
102
RTVSPropertyOp1
 70
     1
102
RTVSPropertyOp2
 70
     1
102
RTVSPropertyOp3
 70
     1
102
RTVSPropertyOp4
 70
     1
102
RTVSPropertyOp5
 70
     1
102
RTVSPropertyOp6
 70
     1
102
RTVSPropertyOp7
 70
     1
102
RTVSPropertyOp8
 70
     1
102
RTVSPropertyOp9
 70
     1
102
RTVSPropertyOp10
 70
     1
102
RTVSPropertyOp11
 70
     1
102
RTVSPropertyOp12
 70
     1
102
RTVSPropertyOp13
 70
     1
102
RTVSPropertyOp14
 70
     1
102
RTVSPropertyOp15
 70
     1
102
RTVSPropertyOp16
 70
     1
102
RTVSPropertyOp17
 70
     1
102
RTVSPropertyOp18
 70
     1
102
RTVSPropertyOp19
 70
     1
102
RTVSPropertyOp20
 70
     1
102
RTVSPropertyOp21
 70
     1
102
RTVSPropertyOp22
 70
     1
102
RTVSPropertyOp23
 70
     1
102
RTVSPropertyOp24
 70
     1
102
RTVSPropertyOp25
 70
     1
102
RTVSPropertyOp26
 70
     1
102
RTVSPropertyOp27
 70
     1
  0
XRECORD
  5
EA
102
{ACAD_REACTORS
330
E9
102
}
330
E9
100
AcDbXrecord
280
     1
102
RTVSPropertyOp0
 70
     1
102
RTVSPropertyOp1
 70
     1
102
RTVSPropertyOp2
 70
     1
102
RTVSPropertyOp3
 70
     1
102
RTVSPropertyOp4
 70
     1
102
RTVSPropertyOp5
 70
     1
102
RTVSPropertyOp6
 70
     1
102
RTVSPropertyOp7
 70
     1
102
RTVSPropertyOp8
 70
     1
102
RTVSPropertyOp9
 70
     1
102
RTVSPropertyOp10
 70
     1
102
RTVSPropertyOp11
 70
     1
102
RTVSPropertyOp12
 70
     1
102
RTVSPropertyOp13
 70
     1
102
RTVSPropertyOp14
 70
     1
102
RTVSPropertyOp15
 70
     1
102
RTVSPropertyOp16
 70
     1
102
RTVSPropertyOp17
 70
     1
102
RTVSPropertyOp18
 70
     1
102
RTVSPropertyOp19
 70
     1
102
RTVSPropertyOp20
 70
     1
102
RTVSPropertyOp21
 70
     1
102
RTVSPropertyOp22
 70
     1
102
RTVSPropertyOp23
 70
     1
102
RTVSPropertyOp24
 70
     1
102
RTVSPropertyOp25
 70
     1
102
RTVSPropertyOp26
 70
     1
102
RTVSPropertyOp27
 70
     1
  0
XRECORD
  5
F2
102
{ACAD_REACTORS
330
F1
102
}
330
F1
100
AcDbXrecord
280
     1
102
RTVSPropertyOp0
 70
     1
102
RTVSPropertyOp1
 70
     1
102
RTVSPropertyOp2
 70
     1
102
RTVSPropertyOp3
 70
     1
102
RTVSPropertyOp4
 70
     1
102
RTVSPropertyOp5
 70
     1
102
RTVSPropertyOp6
 70
     1
102
RTVSPropertyOp7
 70
     1
102
RTVSPropertyOp8
 70
     1
102
RTVSPropertyOp9
 70
     1
102
RTVSPropertyOp10
 70
     1
102
RTVSPropertyOp11
 70
     1
102
RTVSPropertyOp12
 70
     1
102
RTVSPropertyOp13
 70
     1
102
RTVSPropertyOp14
 70
     1
102
RTVSPropertyOp15
 70
     1
102
RTVSPropertyOp16
 70
     1
102
RTVSPropertyOp17
 70
     1
102
RTVSPropertyOp18
 70
     1
102
RTVSPropertyOp19
 70
     1
102
RTVSPropertyOp20
 70
     1
102
RTVSPropertyOp21
 70
     1
102
RTVSPropertyOp22
 70
     1
102
RTVSPropertyOp23
 70
     1
102
RTVSPropertyOp24
 70
     1
102
RTVSPropertyOp25
 70
     1
102
RTVSPropertyOp26
 70
     1
102
RTVSPropertyOp27
 70
     1
  0
ENDSEC
  0
EOF
